<?xml version="1.0" encoding="UTF-8" standalone="no"?>
<!DOCTYPE svg PUBLIC "-//W3C//DTD SVG 1.1//EN"
 "http://www.w3.org/Graphics/SVG/1.1/DTD/svg11.dtd">
<!-- Generated by graphviz version 2.44.0 ()
 -->
<!-- Pages: 1 -->
<svg width="420pt" height="209pt"
 viewBox="0.00 0.00 420.00 209.00" xmlns="http://www.w3.org/2000/svg" xmlns:xlink="http://www.w3.org/1999/xlink">
<g id="graph0" class="graph" transform="scale(1 1) rotate(0) translate(4 205)">
<polygon fill="white" stroke="transparent" points="-4,4 -4,-205 416,-205 416,4 -4,4"/>
<!-- top -->
<g id="node1" class="node">
<title>top</title>
<polygon fill="none" stroke="black" points="304,-201 107,-201 107,-163 304,-163 304,-201"/>
<text text-anchor="middle" x="205.5" y="-185.8" font-family="Times,serif" font-size="14.00">dns:example.com?TYPE=TXT</text>
<text text-anchor="middle" x="205.5" y="-170.8" font-family="Times,serif" font-size="14.00">crud/update</text>
</g>
<!-- left -->
<g id="node2" class="node">
<title>left</title>
<polygon fill="none" stroke="black" points="197,-127 0,-127 0,-74 197,-74 197,-127"/>
<text text-anchor="middle" x="98.5" y="-111.8" font-family="Times,serif" font-size="14.00">mailto:alice@example.com</text>
<text text-anchor="middle" x="98.5" y="-96.8" font-family="Times,serif" font-size="14.00">msg/send</text>
<text text-anchor="middle" x="98.5" y="-81.8" font-family="Times,serif" font-size="14.00">bob@example.com</text>
</g>
<!-- top&#45;&gt;left -->
<g id="edge1" class="edge">
<title>top&#45;&gt;left</title>
<path fill="none" stroke="black" d="M152,-162.69C152,-162.69 152,-137.08 152,-137.08"/>
<polygon fill="black" stroke="black" points="155.5,-137.08 152,-127.08 148.5,-137.08 155.5,-137.08"/>
</g>
<!-- right -->
<g id="node4" class="node">
<title>right</title>
<polygon fill="none" stroke="black" points="412,-127 215,-127 215,-74 412,-74 412,-127"/>
<text text-anchor="middle" x="313.5" y="-111.8" font-family="Times,serif" font-size="14.00">mailto:alice@example.com</text>
<text text-anchor="middle" x="313.5" y="-96.8" font-family="Times,serif" font-size="14.00">msg/send</text>
<text text-anchor="middle" x="313.5" y="-81.8" font-family="Times,serif" font-size="14.00">carol@example.com</text>
</g>
<!-- top&#45;&gt;right -->
<g id="edge3" class="edge">
<title>top&#45;&gt;right</title>
<path fill="none" stroke="black" d="M259.5,-162.69C259.5,-162.69 259.5,-137.08 259.5,-137.08"/>
<polygon fill="black" stroke="black" points="263,-137.08 259.5,-127.08 256,-137.08 263,-137.08"/>
</g>
<!-- bottom -->
<g id="node3" class="node">
<title>bottom</title>
<polygon fill="none" stroke="black" points="311.5,-38 99.5,-38 99.5,0 311.5,0 311.5,-38"/>
<text text-anchor="middle" x="205.5" y="-22.8" font-family="Times,serif" font-size="14.00">https://example.com/events</text>
<text text-anchor="middle" x="205.5" y="-7.8" font-family="Times,serif" font-size="14.00">crud/create</text>
</g>
<!-- left&#45;&gt;bottom -->
<g id="edge2" class="edge">
<title>left&#45;&gt;bottom</title>
<path fill="none" stroke="black" d="M148.25,-73.81C148.25,-73.81 148.25,-48.25 148.25,-48.25"/>
<polygon fill="black" stroke="black" points="151.75,-48.25 148.25,-38.25 144.75,-48.25 151.75,-48.25"/>
</g>
<!-- right&#45;&gt;bottom -->
<g id="edge4" class="edge">
<title>right&#45;&gt;bottom</title>
<path fill="none" stroke="black" d="M263.25,-73.81C263.25,-73.81 263.25,-48.25 263.25,-48.25"/>
<polygon fill="black" stroke="black" points="266.75,-48.25 263.25,-38.25 259.75,-48.25 266.75,-48.25"/>
</g>
</g>
</svg>
