<?xml version="1.0" encoding="UTF-8" standalone="no"?>
<!DOCTYPE svg PUBLIC "-//W3C//DTD SVG 1.1//EN"
 "http://www.w3.org/Graphics/SVG/1.1/DTD/svg11.dtd">
<!-- Generated by graphviz version 2.44.0 ()
 -->
<!-- Pages: 1 -->
<svg width="528pt" height="98pt"
 viewBox="0.00 0.00 528.00 98.00" xmlns="http://www.w3.org/2000/svg" xmlns:xlink="http://www.w3.org/1999/xlink">
<g id="graph0" class="graph" transform="scale(1 1) rotate(0) translate(4 94)">
<polygon fill="white" stroke="transparent" points="-4,4 -4,-94 524,-94 524,4 -4,4"/>
<!-- Invocation -->
<g id="node1" class="node">
<title>Invocation</title>
<path fill="none" stroke="black" d="M80,-63C80,-63 12,-63 12,-63 6,-63 0,-57 0,-51 0,-51 0,-39 0,-39 0,-33 6,-27 12,-27 12,-27 80,-27 80,-27 86,-27 92,-33 92,-39 92,-39 92,-51 92,-51 92,-57 86,-63 80,-63"/>
<text text-anchor="middle" x="46" y="-41.3" font-family="Times,serif" font-size="14.00">Invocation</text>
</g>
<!-- Pointer -->
<g id="node2" class="node">
<title>Pointer</title>
<path fill="none" stroke="black" d="M185,-88C185,-88 140,-88 140,-88 134,-88 128,-82 128,-76 128,-76 128,-64 128,-64 128,-58 134,-52 140,-52 140,-52 185,-52 185,-52 191,-52 197,-58 197,-64 197,-64 197,-76 197,-76 197,-82 191,-88 185,-88"/>
<text text-anchor="middle" x="162.5" y="-66.3" font-family="Times,serif" font-size="14.00">Pointer</text>
</g>
<!-- Invocation&#45;&gt;Pointer -->
<g id="edge1" class="edge">
<title>Invocation&#45;&gt;Pointer</title>
<path fill="none" stroke="black" d="M92.25,-54.88C100.7,-56.72 109.51,-58.65 117.9,-60.48"/>
<polygon fill="black" stroke="black" points="117.36,-63.94 127.88,-62.66 118.85,-57.11 117.36,-63.94"/>
</g>
<!-- Batch -->
<g id="node6" class="node">
<title>Batch</title>
<path fill="none" stroke="black" d="M282.5,-36C282.5,-36 252.5,-36 252.5,-36 246.5,-36 240.5,-30 240.5,-24 240.5,-24 240.5,-12 240.5,-12 240.5,-6 246.5,0 252.5,0 252.5,0 282.5,0 282.5,0 288.5,0 294.5,-6 294.5,-12 294.5,-12 294.5,-24 294.5,-24 294.5,-30 288.5,-36 282.5,-36"/>
<text text-anchor="middle" x="267.5" y="-14.3" font-family="Times,serif" font-size="14.00">Batch</text>
</g>
<!-- Invocation&#45;&gt;Batch -->
<g id="edge5" class="edge">
<title>Invocation&#45;&gt;Batch</title>
<path fill="none" stroke="black" d="M92.21,-39.44C133.05,-34.41 192.38,-27.12 230.2,-22.47"/>
<polygon fill="black" stroke="black" points="230.77,-25.92 240.26,-21.23 229.91,-18.97 230.77,-25.92"/>
</g>
<!-- Receipt -->
<g id="node3" class="node">
<title>Receipt</title>
<path fill="none" stroke="black" d="M290,-90C290,-90 245,-90 245,-90 239,-90 233,-84 233,-78 233,-78 233,-66 233,-66 233,-60 239,-54 245,-54 245,-54 290,-54 290,-54 296,-54 302,-60 302,-66 302,-66 302,-78 302,-78 302,-84 296,-90 290,-90"/>
<text text-anchor="middle" x="267.5" y="-68.3" font-family="Times,serif" font-size="14.00">Receipt</text>
</g>
<!-- Pointer&#45;&gt;Receipt -->
<g id="edge2" class="edge">
<title>Pointer&#45;&gt;Receipt</title>
<path fill="none" stroke="black" d="M197.23,-70.65C205.32,-70.81 214.08,-70.98 222.56,-71.15"/>
<polygon fill="black" stroke="black" points="222.63,-74.65 232.7,-71.34 222.77,-67.65 222.63,-74.65"/>
</g>
<!-- Promise -->
<g id="node4" class="node">
<title>Promise</title>
<path fill="none" stroke="black" d="M395,-88C395,-88 350,-88 350,-88 344,-88 338,-82 338,-76 338,-76 338,-64 338,-64 338,-58 344,-52 350,-52 350,-52 395,-52 395,-52 401,-52 407,-58 407,-64 407,-64 407,-76 407,-76 407,-82 401,-88 395,-88"/>
<text text-anchor="middle" x="372.5" y="-66.3" font-family="Times,serif" font-size="14.00">Promise</text>
</g>
<!-- Receipt&#45;&gt;Promise -->
<g id="edge3" class="edge">
<title>Receipt&#45;&gt;Promise</title>
<path fill="none" stroke="black" d="M302.23,-71.35C310.32,-71.19 319.08,-71.02 327.56,-70.85"/>
<polygon fill="black" stroke="black" points="327.77,-74.35 337.7,-70.66 327.63,-67.35 327.77,-74.35"/>
</g>
<!-- Pipeline -->
<g id="node5" class="node">
<title>Pipeline</title>
<path fill="none" stroke="black" d="M508,-63C508,-63 455,-63 455,-63 449,-63 443,-57 443,-51 443,-51 443,-39 443,-39 443,-33 449,-27 455,-27 455,-27 508,-27 508,-27 514,-27 520,-33 520,-39 520,-39 520,-51 520,-51 520,-57 514,-63 508,-63"/>
<text text-anchor="middle" x="481.5" y="-41.3" font-family="Times,serif" font-size="14.00">Pipeline</text>
</g>
<!-- Promise&#45;&gt;Pipeline -->
<g id="edge4" class="edge">
<title>Promise&#45;&gt;Pipeline</title>
<path fill="none" stroke="black" d="M407.06,-62.16C415.34,-60.22 424.37,-58.11 433.17,-56.06"/>
<polygon fill="black" stroke="black" points="434.02,-59.45 442.96,-53.77 432.43,-52.64 434.02,-59.45"/>
</g>
<!-- Batch&#45;&gt;Pipeline -->
<g id="edge6" class="edge">
<title>Batch&#45;&gt;Pipeline</title>
<path fill="none" stroke="black" d="M294.92,-21.36C329.27,-25.74 389.9,-33.46 432.49,-38.89"/>
<polygon fill="black" stroke="black" points="432.27,-42.39 442.63,-40.18 433.15,-35.44 432.27,-42.39"/>
</g>
</g>
</svg>
