<?xml version="1.0" encoding="UTF-8" standalone="no"?>
<!DOCTYPE svg PUBLIC "-//W3C//DTD SVG 1.1//EN"
 "http://www.w3.org/Graphics/SVG/1.1/DTD/svg11.dtd">
<!-- Generated by graphviz version 2.44.0 ()
 -->
<!-- Pages: 1 -->
<svg width="558pt" height="144pt"
 viewBox="0.00 0.00 558.00 144.00" xmlns="http://www.w3.org/2000/svg" xmlns:xlink="http://www.w3.org/1999/xlink">
<g id="graph0" class="graph" transform="scale(1 1) rotate(0) translate(4 140)">
<polygon fill="white" stroke="transparent" points="-4,4 -4,-140 554,-140 554,4 -4,4"/>
<!-- Invocation -->
<g id="node1" class="node">
<title>Invocation</title>
<path fill="none" stroke="black" d="M80,-63C80,-63 12,-63 12,-63 6,-63 0,-57 0,-51 0,-51 0,-39 0,-39 0,-33 6,-27 12,-27 12,-27 80,-27 80,-27 86,-27 92,-33 92,-39 92,-39 92,-51 92,-51 92,-57 86,-63 80,-63"/>
<text text-anchor="middle" x="46" y="-41.3" font-family="Times,serif" font-size="14.00">Invocation</text>
</g>
<!-- Pointer -->
<g id="node2" class="node">
<title>Pointer</title>
<path fill="none" stroke="black" d="M185,-88C185,-88 140,-88 140,-88 134,-88 128,-82 128,-76 128,-76 128,-64 128,-64 128,-58 134,-52 140,-52 140,-52 185,-52 185,-52 191,-52 197,-58 197,-64 197,-64 197,-76 197,-76 197,-82 191,-88 185,-88"/>
<text text-anchor="middle" x="162.5" y="-66.3" font-family="Times,serif" font-size="14.00">Pointer</text>
</g>
<!-- Invocation&#45;&gt;Pointer -->
<g id="edge1" class="edge">
<title>Invocation&#45;&gt;Pointer</title>
<path fill="none" stroke="black" d="M92.25,-54.88C100.7,-56.72 109.51,-58.65 117.9,-60.48"/>
<polygon fill="black" stroke="black" points="117.36,-63.94 127.88,-62.66 118.85,-57.11 117.36,-63.94"/>
</g>
<!-- Batch -->
<g id="node7" class="node">
<title>Batch</title>
<path fill="none" stroke="black" d="M282.5,-36C282.5,-36 252.5,-36 252.5,-36 246.5,-36 240.5,-30 240.5,-24 240.5,-24 240.5,-12 240.5,-12 240.5,-6 246.5,0 252.5,0 252.5,0 282.5,0 282.5,0 288.5,0 294.5,-6 294.5,-12 294.5,-12 294.5,-24 294.5,-24 294.5,-30 288.5,-36 282.5,-36"/>
<text text-anchor="middle" x="267.5" y="-14.3" font-family="Times,serif" font-size="14.00">Batch</text>
</g>
<!-- Invocation&#45;&gt;Batch -->
<g id="edge6" class="edge">
<title>Invocation&#45;&gt;Batch</title>
<path fill="none" stroke="black" d="M92.21,-39.44C133.05,-34.41 192.38,-27.12 230.2,-22.47"/>
<polygon fill="black" stroke="black" points="230.77,-25.92 240.26,-21.23 229.91,-18.97 230.77,-25.92"/>
</g>
<!-- Receipt -->
<g id="node3" class="node">
<title>Receipt</title>
<path fill="none" stroke="black" d="M290,-90C290,-90 245,-90 245,-90 239,-90 233,-84 233,-78 233,-78 233,-66 233,-66 233,-60 239,-54 245,-54 245,-54 290,-54 290,-54 296,-54 302,-60 302,-66 302,-66 302,-78 302,-78 302,-84 296,-90 290,-90"/>
<text text-anchor="middle" x="267.5" y="-68.3" font-family="Times,serif" font-size="14.00">Receipt</text>
</g>
<!-- Pointer&#45;&gt;Receipt -->
<g id="edge2" class="edge">
<title>Pointer&#45;&gt;Receipt</title>
<path fill="none" stroke="black" d="M197.23,-70.65C205.32,-70.81 214.08,-70.98 222.56,-71.15"/>
<polygon fill="black" stroke="black" points="222.63,-74.65 232.7,-71.34 222.77,-67.65 222.63,-74.65"/>
</g>
<!-- Memoization -->
<g id="node4" class="node">
<title>Memoization</title>
<path fill="none" stroke="black" d="M425,-136C425,-136 350,-136 350,-136 344,-136 338,-130 338,-124 338,-124 338,-112 338,-112 338,-106 344,-100 350,-100 350,-100 425,-100 425,-100 431,-100 437,-106 437,-112 437,-112 437,-124 437,-124 437,-130 431,-136 425,-136"/>
<text text-anchor="middle" x="387.5" y="-114.3" font-family="Times,serif" font-size="14.00">Memoization</text>
</g>
<!-- Receipt&#45;&gt;Memoization -->
<g id="edge3" class="edge">
<title>Receipt&#45;&gt;Memoization</title>
<path fill="none" stroke="black" d="M302.31,-85.18C311.1,-88.61 320.8,-92.39 330.4,-96.13"/>
<polygon fill="black" stroke="black" points="329.34,-99.47 339.93,-99.85 331.88,-92.95 329.34,-99.47"/>
</g>
<!-- Promise -->
<g id="node5" class="node">
<title>Promise</title>
<path fill="none" stroke="black" d="M410,-82C410,-82 365,-82 365,-82 359,-82 353,-76 353,-70 353,-70 353,-58 353,-58 353,-52 359,-46 365,-46 365,-46 410,-46 410,-46 416,-46 422,-52 422,-58 422,-58 422,-70 422,-70 422,-76 416,-82 410,-82"/>
<text text-anchor="middle" x="387.5" y="-60.3" font-family="Times,serif" font-size="14.00">Promise</text>
</g>
<!-- Receipt&#45;&gt;Promise -->
<g id="edge4" class="edge">
<title>Receipt&#45;&gt;Promise</title>
<path fill="none" stroke="black" d="M302.31,-69.71C314.78,-68.86 329.1,-67.89 342.34,-66.99"/>
<polygon fill="black" stroke="black" points="342.94,-70.46 352.68,-66.29 342.47,-63.48 342.94,-70.46"/>
</g>
<!-- Pipeline -->
<g id="node6" class="node">
<title>Pipeline</title>
<path fill="none" stroke="black" d="M538,-59C538,-59 485,-59 485,-59 479,-59 473,-53 473,-47 473,-47 473,-35 473,-35 473,-29 479,-23 485,-23 485,-23 538,-23 538,-23 544,-23 550,-29 550,-35 550,-35 550,-47 550,-47 550,-53 544,-59 538,-59"/>
<text text-anchor="middle" x="511.5" y="-37.3" font-family="Times,serif" font-size="14.00">Pipeline</text>
</g>
<!-- Promise&#45;&gt;Pipeline -->
<g id="edge5" class="edge">
<title>Promise&#45;&gt;Pipeline</title>
<path fill="none" stroke="black" d="M422.16,-57.65C434.64,-55.3 449.04,-52.59 462.54,-50.04"/>
<polygon fill="black" stroke="black" points="463.47,-53.43 472.65,-48.14 462.18,-46.55 463.47,-53.43"/>
</g>
<!-- Batch&#45;&gt;Pipeline -->
<g id="edge7" class="edge">
<title>Batch&#45;&gt;Pipeline</title>
<path fill="none" stroke="black" d="M294.86,-20.51C335.09,-24.33 412.42,-31.68 462.71,-36.46"/>
<polygon fill="black" stroke="black" points="462.41,-39.95 472.7,-37.41 463.07,-32.98 462.41,-39.95"/>
</g>
</g>
</svg>
