<?xml version="1.0" encoding="UTF-8" standalone="no"?>
<!DOCTYPE svg PUBLIC "-//W3C//DTD SVG 1.1//EN"
 "http://www.w3.org/Graphics/SVG/1.1/DTD/svg11.dtd">
<!-- Generated by graphviz version 2.44.0 ()
 -->
<!-- Pages: 1 -->
<svg width="248pt" height="404pt"
 viewBox="0.00 0.00 247.50 404.00" xmlns="http://www.w3.org/2000/svg" xmlns:xlink="http://www.w3.org/1999/xlink">
<g id="graph0" class="graph" transform="scale(1 1) rotate(0) translate(4 400)">
<polygon fill="white" stroke="transparent" points="-4,4 -4,-400 243.5,-400 243.5,4 -4,4"/>
<!-- Closure -->
<g id="node1" class="node">
<title>Closure</title>
<path fill="none" stroke="black" d="M199,-396C199,-396 154,-396 154,-396 148,-396 142,-390 142,-384 142,-384 142,-372 142,-372 142,-366 148,-360 154,-360 154,-360 199,-360 199,-360 205,-360 211,-366 211,-372 211,-372 211,-384 211,-384 211,-390 205,-396 199,-396"/>
<text text-anchor="middle" x="176.5" y="-374.3" font-family="Times,serif" font-size="14.00">Closure</text>
</g>
<!-- Task -->
<g id="node2" class="node">
<title>Task</title>
<path fill="none" stroke="black" d="M155.5,-324C155.5,-324 125.5,-324 125.5,-324 119.5,-324 113.5,-318 113.5,-312 113.5,-312 113.5,-300 113.5,-300 113.5,-294 119.5,-288 125.5,-288 125.5,-288 155.5,-288 155.5,-288 161.5,-288 167.5,-294 167.5,-300 167.5,-300 167.5,-312 167.5,-312 167.5,-318 161.5,-324 155.5,-324"/>
<text text-anchor="middle" x="140.5" y="-302.3" font-family="Times,serif" font-size="14.00">Task</text>
</g>
<!-- Closure&#45;&gt;Task -->
<g id="edge1" class="edge">
<title>Closure&#45;&gt;Task</title>
<path fill="none" stroke="black" d="M167.6,-359.7C163.5,-351.73 158.55,-342.1 154.01,-333.26"/>
<polygon fill="black" stroke="black" points="156.98,-331.4 149.3,-324.1 150.76,-334.6 156.98,-331.4"/>
</g>
<!-- Batch -->
<g id="node4" class="node">
<title>Batch</title>
<path fill="none" stroke="black" d="M227.5,-324C227.5,-324 197.5,-324 197.5,-324 191.5,-324 185.5,-318 185.5,-312 185.5,-312 185.5,-300 185.5,-300 185.5,-294 191.5,-288 197.5,-288 197.5,-288 227.5,-288 227.5,-288 233.5,-288 239.5,-294 239.5,-300 239.5,-300 239.5,-312 239.5,-312 239.5,-318 233.5,-324 227.5,-324"/>
<text text-anchor="middle" x="212.5" y="-302.3" font-family="Times,serif" font-size="14.00">Batch</text>
</g>
<!-- Closure&#45;&gt;Batch -->
<g id="edge3" class="edge">
<title>Closure&#45;&gt;Batch</title>
<path fill="none" stroke="black" d="M185.4,-359.7C189.5,-351.73 194.45,-342.1 198.99,-333.26"/>
<polygon fill="black" stroke="black" points="202.24,-334.6 203.7,-324.1 196.02,-331.4 202.24,-334.6"/>
</g>
<!-- Invocation -->
<g id="node3" class="node">
<title>Invocation</title>
<path fill="none" stroke="black" d="M174.5,-252C174.5,-252 106.5,-252 106.5,-252 100.5,-252 94.5,-246 94.5,-240 94.5,-240 94.5,-228 94.5,-228 94.5,-222 100.5,-216 106.5,-216 106.5,-216 174.5,-216 174.5,-216 180.5,-216 186.5,-222 186.5,-228 186.5,-228 186.5,-240 186.5,-240 186.5,-246 180.5,-252 174.5,-252"/>
<text text-anchor="middle" x="140.5" y="-230.3" font-family="Times,serif" font-size="14.00">Invocation</text>
</g>
<!-- Task&#45;&gt;Invocation -->
<g id="edge2" class="edge">
<title>Task&#45;&gt;Invocation</title>
<path fill="none" stroke="black" d="M140.5,-287.7C140.5,-279.98 140.5,-270.71 140.5,-262.11"/>
<polygon fill="black" stroke="black" points="144,-262.1 140.5,-252.1 137,-262.1 144,-262.1"/>
</g>
<!-- Receipt -->
<g id="node5" class="node">
<title>Receipt</title>
<path fill="none" stroke="black" d="M163,-180C163,-180 118,-180 118,-180 112,-180 106,-174 106,-168 106,-168 106,-156 106,-156 106,-150 112,-144 118,-144 118,-144 163,-144 163,-144 169,-144 175,-150 175,-156 175,-156 175,-168 175,-168 175,-174 169,-180 163,-180"/>
<text text-anchor="middle" x="140.5" y="-158.3" font-family="Times,serif" font-size="14.00">Receipt</text>
</g>
<!-- Invocation&#45;&gt;Receipt -->
<g id="edge5" class="edge">
<title>Invocation&#45;&gt;Receipt</title>
<path fill="none" stroke="black" d="M140.5,-215.7C140.5,-207.98 140.5,-198.71 140.5,-190.11"/>
<polygon fill="black" stroke="black" points="144,-190.1 140.5,-180.1 137,-190.1 144,-190.1"/>
</g>
<!-- Batch&#45;&gt;Invocation -->
<g id="edge4" class="edge">
<title>Batch&#45;&gt;Invocation</title>
<path fill="none" stroke="black" d="M194.7,-287.7C185.9,-279.14 175.12,-268.66 165.5,-259.3"/>
<polygon fill="black" stroke="black" points="167.7,-256.57 158.09,-252.1 162.82,-261.58 167.7,-256.57"/>
</g>
<!-- Pipeline -->
<g id="node8" class="node">
<title>Pipeline</title>
<path fill="none" stroke="black" d="M209,-36C209,-36 156,-36 156,-36 150,-36 144,-30 144,-24 144,-24 144,-12 144,-12 144,-6 150,0 156,0 156,0 209,0 209,0 215,0 221,-6 221,-12 221,-12 221,-24 221,-24 221,-30 215,-36 209,-36"/>
<text text-anchor="middle" x="182.5" y="-14.3" font-family="Times,serif" font-size="14.00">Pipeline</text>
</g>
<!-- Batch&#45;&gt;Pipeline -->
<g id="edge9" class="edge">
<title>Batch&#45;&gt;Pipeline</title>
<path fill="none" stroke="black" d="M212.23,-287.93C211.41,-249.27 208.16,-152.12 195.5,-72 194.15,-63.45 192.1,-54.24 190.04,-45.95"/>
<polygon fill="black" stroke="black" points="193.36,-44.83 187.45,-36.04 186.59,-46.6 193.36,-44.83"/>
</g>
<!-- Memoization -->
<g id="node6" class="node">
<title>Memoization</title>
<path fill="none" stroke="black" d="M87,-108C87,-108 12,-108 12,-108 6,-108 0,-102 0,-96 0,-96 0,-84 0,-84 0,-78 6,-72 12,-72 12,-72 87,-72 87,-72 93,-72 99,-78 99,-84 99,-84 99,-96 99,-96 99,-102 93,-108 87,-108"/>
<text text-anchor="middle" x="49.5" y="-86.3" font-family="Times,serif" font-size="14.00">Memoization</text>
</g>
<!-- Receipt&#45;&gt;Memoization -->
<g id="edge6" class="edge">
<title>Receipt&#45;&gt;Memoization</title>
<path fill="none" stroke="black" d="M118.01,-143.7C106.54,-134.88 92.44,-124.03 80.02,-114.47"/>
<polygon fill="black" stroke="black" points="81.8,-111.43 71.74,-108.1 77.53,-116.98 81.8,-111.43"/>
</g>
<!-- Promise -->
<g id="node7" class="node">
<title>Promise</title>
<path fill="none" stroke="black" d="M174,-108C174,-108 129,-108 129,-108 123,-108 117,-102 117,-96 117,-96 117,-84 117,-84 117,-78 123,-72 129,-72 129,-72 174,-72 174,-72 180,-72 186,-78 186,-84 186,-84 186,-96 186,-96 186,-102 180,-108 174,-108"/>
<text text-anchor="middle" x="151.5" y="-86.3" font-family="Times,serif" font-size="14.00">Promise</text>
</g>
<!-- Receipt&#45;&gt;Promise -->
<g id="edge7" class="edge">
<title>Receipt&#45;&gt;Promise</title>
<path fill="none" stroke="black" d="M143.22,-143.7C144.43,-135.98 145.89,-126.71 147.24,-118.11"/>
<polygon fill="black" stroke="black" points="150.72,-118.53 148.81,-108.1 143.8,-117.44 150.72,-118.53"/>
</g>
<!-- Promise&#45;&gt;Pipeline -->
<g id="edge8" class="edge">
<title>Promise&#45;&gt;Pipeline</title>
<path fill="none" stroke="black" d="M159.16,-71.7C162.69,-63.73 166.96,-54.1 170.87,-45.26"/>
<polygon fill="black" stroke="black" points="174.08,-46.67 174.93,-36.1 167.68,-43.83 174.08,-46.67"/>
</g>
</g>
</svg>
