<?xml version="1.0" encoding="UTF-8" standalone="no"?>
<!DOCTYPE svg PUBLIC "-//W3C//DTD SVG 1.1//EN"
 "http://www.w3.org/Graphics/SVG/1.1/DTD/svg11.dtd">
<!-- Generated by graphviz version 2.44.0 ()
 -->
<!-- Pages: 1 -->
<svg width="267pt" height="260pt"
 viewBox="0.00 0.00 266.50 260.00" xmlns="http://www.w3.org/2000/svg" xmlns:xlink="http://www.w3.org/1999/xlink">
<g id="graph0" class="graph" transform="scale(1 1) rotate(0) translate(4 256)">
<polygon fill="white" stroke="transparent" points="-4,4 -4,-256 262.5,-256 262.5,4 -4,4"/>
<!-- Invocation -->
<g id="node1" class="node">
<title>Invocation</title>
<path fill="none" stroke="black" d="M181.5,-252C181.5,-252 113.5,-252 113.5,-252 107.5,-252 101.5,-246 101.5,-240 101.5,-240 101.5,-228 101.5,-228 101.5,-222 107.5,-216 113.5,-216 113.5,-216 181.5,-216 181.5,-216 187.5,-216 193.5,-222 193.5,-228 193.5,-228 193.5,-240 193.5,-240 193.5,-246 187.5,-252 181.5,-252"/>
<text text-anchor="middle" x="147.5" y="-230.3" font-family="Times,serif" font-size="14.00">Invocation</text>
</g>
<!-- Pointer -->
<g id="node2" class="node">
<title>Pointer</title>
<path fill="none" stroke="black" d="M79,-180C79,-180 34,-180 34,-180 28,-180 22,-174 22,-168 22,-168 22,-156 22,-156 22,-150 28,-144 34,-144 34,-144 79,-144 79,-144 85,-144 91,-150 91,-156 91,-156 91,-168 91,-168 91,-174 85,-180 79,-180"/>
<text text-anchor="middle" x="56.5" y="-158.3" font-family="Times,serif" font-size="14.00">Pointer</text>
</g>
<!-- Invocation&#45;&gt;Pointer -->
<g id="edge1" class="edge">
<title>Invocation&#45;&gt;Pointer</title>
<path fill="none" stroke="black" d="M125.01,-215.7C113.54,-206.88 99.44,-196.03 87.02,-186.47"/>
<polygon fill="black" stroke="black" points="88.8,-183.43 78.74,-180.1 84.53,-188.98 88.8,-183.43"/>
</g>
<!-- Receipt -->
<g id="node4" class="node">
<title>Receipt</title>
<path fill="none" stroke="black" d="M170,-180C170,-180 125,-180 125,-180 119,-180 113,-174 113,-168 113,-168 113,-156 113,-156 113,-150 119,-144 125,-144 125,-144 170,-144 170,-144 176,-144 182,-150 182,-156 182,-156 182,-168 182,-168 182,-174 176,-180 170,-180"/>
<text text-anchor="middle" x="147.5" y="-158.3" font-family="Times,serif" font-size="14.00">Receipt</text>
</g>
<!-- Invocation&#45;&gt;Receipt -->
<g id="edge4" class="edge">
<title>Invocation&#45;&gt;Receipt</title>
<path fill="none" stroke="black" d="M147.5,-215.7C147.5,-207.98 147.5,-198.71 147.5,-190.11"/>
<polygon fill="black" stroke="black" points="151,-190.1 147.5,-180.1 144,-190.1 151,-190.1"/>
</g>
<!-- Batch -->
<g id="node7" class="node">
<title>Batch</title>
<path fill="none" stroke="black" d="M246.5,-108C246.5,-108 216.5,-108 216.5,-108 210.5,-108 204.5,-102 204.5,-96 204.5,-96 204.5,-84 204.5,-84 204.5,-78 210.5,-72 216.5,-72 216.5,-72 246.5,-72 246.5,-72 252.5,-72 258.5,-78 258.5,-84 258.5,-84 258.5,-96 258.5,-96 258.5,-102 252.5,-108 246.5,-108"/>
<text text-anchor="middle" x="231.5" y="-86.3" font-family="Times,serif" font-size="14.00">Batch</text>
</g>
<!-- Invocation&#45;&gt;Batch -->
<g id="edge7" class="edge">
<title>Invocation&#45;&gt;Batch</title>
<path fill="none" stroke="black" d="M163.85,-215.77C172.74,-205.82 183.53,-192.79 191.5,-180 203.9,-160.11 214.59,-135.72 221.78,-117.5"/>
<polygon fill="black" stroke="black" points="225.08,-118.68 225.41,-108.09 218.55,-116.16 225.08,-118.68"/>
</g>
<!-- Memoization -->
<g id="node3" class="node">
<title>Memoization</title>
<path fill="none" stroke="black" d="M87,-108C87,-108 12,-108 12,-108 6,-108 0,-102 0,-96 0,-96 0,-84 0,-84 0,-78 6,-72 12,-72 12,-72 87,-72 87,-72 93,-72 99,-78 99,-84 99,-84 99,-96 99,-96 99,-102 93,-108 87,-108"/>
<text text-anchor="middle" x="49.5" y="-86.3" font-family="Times,serif" font-size="14.00">Memoization</text>
</g>
<!-- Pointer&#45;&gt;Memoization -->
<g id="edge2" class="edge">
<title>Pointer&#45;&gt;Memoization</title>
<path fill="none" stroke="black" d="M54.77,-143.7C54,-135.98 53.07,-126.71 52.21,-118.11"/>
<polygon fill="black" stroke="black" points="55.69,-117.71 51.21,-108.1 48.72,-118.4 55.69,-117.71"/>
</g>
<!-- Receipt&#45;&gt;Memoization -->
<g id="edge3" class="edge">
<title>Receipt&#45;&gt;Memoization</title>
<path fill="none" stroke="black" d="M123.53,-143.88C110.95,-134.89 95.37,-123.76 81.75,-114.03"/>
<polygon fill="black" stroke="black" points="83.74,-111.15 73.57,-108.19 79.67,-116.85 83.74,-111.15"/>
</g>
<!-- Promise -->
<g id="node5" class="node">
<title>Promise</title>
<path fill="none" stroke="black" d="M174,-108C174,-108 129,-108 129,-108 123,-108 117,-102 117,-96 117,-96 117,-84 117,-84 117,-78 123,-72 129,-72 129,-72 174,-72 174,-72 180,-72 186,-78 186,-84 186,-84 186,-96 186,-96 186,-102 180,-108 174,-108"/>
<text text-anchor="middle" x="151.5" y="-86.3" font-family="Times,serif" font-size="14.00">Promise</text>
</g>
<!-- Receipt&#45;&gt;Promise -->
<g id="edge5" class="edge">
<title>Receipt&#45;&gt;Promise</title>
<path fill="none" stroke="black" d="M148.49,-143.7C148.93,-135.98 149.46,-126.71 149.95,-118.11"/>
<polygon fill="black" stroke="black" points="153.45,-118.29 150.52,-108.1 146.46,-117.89 153.45,-118.29"/>
</g>
<!-- Pipeline -->
<g id="node6" class="node">
<title>Pipeline</title>
<path fill="none" stroke="black" d="M218,-36C218,-36 165,-36 165,-36 159,-36 153,-30 153,-24 153,-24 153,-12 153,-12 153,-6 159,0 165,0 165,0 218,0 218,0 224,0 230,-6 230,-12 230,-12 230,-24 230,-24 230,-30 224,-36 218,-36"/>
<text text-anchor="middle" x="191.5" y="-14.3" font-family="Times,serif" font-size="14.00">Pipeline</text>
</g>
<!-- Promise&#45;&gt;Pipeline -->
<g id="edge6" class="edge">
<title>Promise&#45;&gt;Pipeline</title>
<path fill="none" stroke="black" d="M161.39,-71.7C165.99,-63.64 171.56,-53.89 176.65,-44.98"/>
<polygon fill="black" stroke="black" points="179.8,-46.52 181.73,-36.1 173.73,-43.05 179.8,-46.52"/>
</g>
<!-- Batch&#45;&gt;Pipeline -->
<g id="edge8" class="edge">
<title>Batch&#45;&gt;Pipeline</title>
<path fill="none" stroke="black" d="M221.61,-71.7C217.01,-63.64 211.44,-53.89 206.35,-44.98"/>
<polygon fill="black" stroke="black" points="209.27,-43.05 201.27,-36.1 203.2,-46.52 209.27,-43.05"/>
</g>
</g>
</svg>
