<?xml version="1.0" encoding="UTF-8" standalone="no"?>
<!DOCTYPE svg PUBLIC "-//W3C//DTD SVG 1.1//EN"
 "http://www.w3.org/Graphics/SVG/1.1/DTD/svg11.dtd">
<!-- Generated by graphviz version 2.44.0 ()
 -->
<!-- Pages: 1 -->
<svg width="558pt" height="144pt"
 viewBox="0.00 0.00 558.00 144.00" xmlns="http://www.w3.org/2000/svg" xmlns:xlink="http://www.w3.org/1999/xlink">
<g id="graph0" class="graph" transform="scale(1 1) rotate(0) translate(4 140)">
<polygon fill="white" stroke="transparent" points="-4,4 -4,-140 554,-140 554,4 -4,4"/>
<!-- Invocation -->
<g id="node1" class="node">
<title>Invocation</title>
<path fill="none" stroke="black" d="M80,-63C80,-63 12,-63 12,-63 6,-63 0,-57 0,-51 0,-51 0,-39 0,-39 0,-33 6,-27 12,-27 12,-27 80,-27 80,-27 86,-27 92,-33 92,-39 92,-39 92,-51 92,-51 92,-57 86,-63 80,-63"/>
<text text-anchor="middle" x="46" y="-41.3" font-family="Times,serif" font-size="14.00">Invocation</text>
</g>
<!-- Pointer -->
<g id="node2" class="node">
<title>Pointer</title>
<path fill="none" stroke="black" d="M185,-90C185,-90 140,-90 140,-90 134,-90 128,-84 128,-78 128,-78 128,-66 128,-66 128,-60 134,-54 140,-54 140,-54 185,-54 185,-54 191,-54 197,-60 197,-66 197,-66 197,-78 197,-78 197,-84 191,-90 185,-90"/>
<text text-anchor="middle" x="162.5" y="-68.3" font-family="Times,serif" font-size="14.00">Pointer</text>
</g>
<!-- Invocation&#45;&gt;Pointer -->
<g id="edge1" class="edge">
<title>Invocation&#45;&gt;Pointer</title>
<path fill="none" stroke="black" d="M92.25,-55.67C100.7,-57.66 109.51,-59.74 117.9,-61.72"/>
<polygon fill="black" stroke="black" points="117.34,-65.18 127.88,-64.07 118.95,-58.37 117.34,-65.18"/>
</g>
<!-- Batch -->
<g id="node7" class="node">
<title>Batch</title>
<path fill="none" stroke="black" d="M282.5,-36C282.5,-36 252.5,-36 252.5,-36 246.5,-36 240.5,-30 240.5,-24 240.5,-24 240.5,-12 240.5,-12 240.5,-6 246.5,0 252.5,0 252.5,0 282.5,0 282.5,0 288.5,0 294.5,-6 294.5,-12 294.5,-12 294.5,-24 294.5,-24 294.5,-30 288.5,-36 282.5,-36"/>
<text text-anchor="middle" x="267.5" y="-14.3" font-family="Times,serif" font-size="14.00">Batch</text>
</g>
<!-- Invocation&#45;&gt;Batch -->
<g id="edge7" class="edge">
<title>Invocation&#45;&gt;Batch</title>
<path fill="none" stroke="black" d="M92.21,-39.44C133.05,-34.41 192.38,-27.12 230.2,-22.47"/>
<polygon fill="black" stroke="black" points="230.77,-25.92 240.26,-21.23 229.91,-18.97 230.77,-25.92"/>
</g>
<!-- Receipt -->
<g id="node3" class="node">
<title>Receipt</title>
<path fill="none" stroke="black" d="M290,-90C290,-90 245,-90 245,-90 239,-90 233,-84 233,-78 233,-78 233,-66 233,-66 233,-60 239,-54 245,-54 245,-54 290,-54 290,-54 296,-54 302,-60 302,-66 302,-66 302,-78 302,-78 302,-84 296,-90 290,-90"/>
<text text-anchor="middle" x="267.5" y="-68.3" font-family="Times,serif" font-size="14.00">Receipt</text>
</g>
<!-- Pointer&#45;&gt;Receipt -->
<g id="edge2" class="edge">
<title>Pointer&#45;&gt;Receipt</title>
<path fill="none" stroke="black" d="M197.23,-65.62C205.32,-65.27 214.08,-65.17 222.56,-65.32"/>
<polygon fill="black" stroke="black" points="222.6,-68.82 232.7,-65.62 222.81,-61.82 222.6,-68.82"/>
</g>
<!-- Pointer&#45;&gt;Receipt -->
<g id="edge5" class="edge">
<title>Pointer&#45;&gt;Receipt</title>
<path fill="none" stroke="black" d="M197.23,-78.38C205.32,-78.73 214.08,-78.83 222.56,-78.68"/>
<polygon fill="black" stroke="black" points="222.81,-82.18 232.7,-78.38 222.6,-75.18 222.81,-82.18"/>
</g>
<!-- Promise -->
<g id="node4" class="node">
<title>Promise</title>
<path fill="none" stroke="black" d="M410,-136C410,-136 365,-136 365,-136 359,-136 353,-130 353,-124 353,-124 353,-112 353,-112 353,-106 359,-100 365,-100 365,-100 410,-100 410,-100 416,-100 422,-106 422,-112 422,-112 422,-124 422,-124 422,-130 416,-136 410,-136"/>
<text text-anchor="middle" x="387.5" y="-114.3" font-family="Times,serif" font-size="14.00">Promise</text>
</g>
<!-- Receipt&#45;&gt;Promise -->
<g id="edge3" class="edge">
<title>Receipt&#45;&gt;Promise</title>
<path fill="none" stroke="black" d="M302.31,-85.18C315.03,-90.14 329.66,-95.84 343.13,-101.09"/>
<polygon fill="black" stroke="black" points="342.09,-104.45 352.68,-104.82 344.64,-97.92 342.09,-104.45"/>
</g>
<!-- Memoization -->
<g id="node6" class="node">
<title>Memoization</title>
<path fill="none" stroke="black" d="M425,-82C425,-82 350,-82 350,-82 344,-82 338,-76 338,-70 338,-70 338,-58 338,-58 338,-52 344,-46 350,-46 350,-46 425,-46 425,-46 431,-46 437,-52 437,-58 437,-58 437,-70 437,-70 437,-76 431,-82 425,-82"/>
<text text-anchor="middle" x="387.5" y="-60.3" font-family="Times,serif" font-size="14.00">Memoization</text>
</g>
<!-- Receipt&#45;&gt;Memoization -->
<g id="edge6" class="edge">
<title>Receipt&#45;&gt;Memoization</title>
<path fill="none" stroke="black" d="M302.31,-69.71C310.24,-69.17 318.92,-68.58 327.6,-67.99"/>
<polygon fill="black" stroke="black" points="327.99,-71.47 337.73,-67.31 327.52,-64.49 327.99,-71.47"/>
</g>
<!-- Pipeline -->
<g id="node5" class="node">
<title>Pipeline</title>
<path fill="none" stroke="black" d="M538,-86C538,-86 485,-86 485,-86 479,-86 473,-80 473,-74 473,-74 473,-62 473,-62 473,-56 479,-50 485,-50 485,-50 538,-50 538,-50 544,-50 550,-56 550,-62 550,-62 550,-74 550,-74 550,-80 544,-86 538,-86"/>
<text text-anchor="middle" x="511.5" y="-64.3" font-family="Times,serif" font-size="14.00">Pipeline</text>
</g>
<!-- Promise&#45;&gt;Pipeline -->
<g id="edge4" class="edge">
<title>Promise&#45;&gt;Pipeline</title>
<path fill="none" stroke="black" d="M422.16,-104.2C434.88,-98.99 449.6,-92.96 463.34,-87.33"/>
<polygon fill="black" stroke="black" points="464.73,-90.54 472.65,-83.51 462.07,-84.07 464.73,-90.54"/>
</g>
<!-- Batch&#45;&gt;Pipeline -->
<g id="edge8" class="edge">
<title>Batch&#45;&gt;Pipeline</title>
<path fill="none" stroke="black" d="M294.61,-18.63C328.1,-19.97 387.73,-24.12 437,-37 445.95,-39.34 455.24,-42.57 464.08,-46.07"/>
<polygon fill="black" stroke="black" points="462.88,-49.36 473.45,-49.94 465.55,-42.89 462.88,-49.36"/>
</g>
</g>
</svg>
