<?xml version="1.0" encoding="UTF-8" standalone="no"?>
<!DOCTYPE svg PUBLIC "-//W3C//DTD SVG 1.1//EN"
 "http://www.w3.org/Graphics/SVG/1.1/DTD/svg11.dtd">
<!-- Generated by graphviz version 2.44.0 ()
 -->
<!-- Pages: 1 -->
<svg width="194pt" height="332pt"
 viewBox="0.00 0.00 194.00 332.00" xmlns="http://www.w3.org/2000/svg" xmlns:xlink="http://www.w3.org/1999/xlink">
<g id="graph0" class="graph" transform="scale(1 1) rotate(0) translate(4 328)">
<polygon fill="white" stroke="transparent" points="-4,4 -4,-328 190,-328 190,4 -4,4"/>
<!-- Closure -->
<g id="node1" class="node">
<title>Closure</title>
<path fill="none" stroke="black" d="M123,-324C123,-324 78,-324 78,-324 72,-324 66,-318 66,-312 66,-312 66,-300 66,-300 66,-294 72,-288 78,-288 78,-288 123,-288 123,-288 129,-288 135,-294 135,-300 135,-300 135,-312 135,-312 135,-318 129,-324 123,-324"/>
<text text-anchor="middle" x="100.5" y="-302.3" font-family="Times,serif" font-size="14.00">Closure</text>
</g>
<!-- Metadata -->
<g id="node2" class="node">
<title>Metadata</title>
<path fill="none" stroke="black" d="M85,-252C85,-252 32,-252 32,-252 26,-252 20,-246 20,-240 20,-240 20,-228 20,-228 20,-222 26,-216 32,-216 32,-216 85,-216 85,-216 91,-216 97,-222 97,-228 97,-228 97,-240 97,-240 97,-246 91,-252 85,-252"/>
<text text-anchor="middle" x="58.5" y="-230.3" font-family="Times,serif" font-size="14.00">Metadata</text>
</g>
<!-- Closure&#45;&gt;Metadata -->
<g id="edge1" class="edge">
<title>Closure&#45;&gt;Metadata</title>
<path fill="none" stroke="black" d="M90.12,-287.7C85.24,-279.56 79.31,-269.69 73.92,-260.7"/>
<polygon fill="black" stroke="black" points="76.91,-258.88 68.76,-252.1 70.91,-262.48 76.91,-258.88"/>
</g>
<!-- Batch -->
<g id="node4" class="node">
<title>Batch</title>
<path fill="none" stroke="black" d="M157.5,-252C157.5,-252 127.5,-252 127.5,-252 121.5,-252 115.5,-246 115.5,-240 115.5,-240 115.5,-228 115.5,-228 115.5,-222 121.5,-216 127.5,-216 127.5,-216 157.5,-216 157.5,-216 163.5,-216 169.5,-222 169.5,-228 169.5,-228 169.5,-240 169.5,-240 169.5,-246 163.5,-252 157.5,-252"/>
<text text-anchor="middle" x="142.5" y="-230.3" font-family="Times,serif" font-size="14.00">Batch</text>
</g>
<!-- Closure&#45;&gt;Batch -->
<g id="edge3" class="edge">
<title>Closure&#45;&gt;Batch</title>
<path fill="none" stroke="black" d="M110.88,-287.7C115.76,-279.56 121.69,-269.69 127.08,-260.7"/>
<polygon fill="black" stroke="black" points="130.09,-262.48 132.24,-252.1 124.09,-258.88 130.09,-262.48"/>
</g>
<!-- Invocation -->
<g id="node3" class="node">
<title>Invocation</title>
<path fill="none" stroke="black" d="M134.5,-180C134.5,-180 66.5,-180 66.5,-180 60.5,-180 54.5,-174 54.5,-168 54.5,-168 54.5,-156 54.5,-156 54.5,-150 60.5,-144 66.5,-144 66.5,-144 134.5,-144 134.5,-144 140.5,-144 146.5,-150 146.5,-156 146.5,-156 146.5,-168 146.5,-168 146.5,-174 140.5,-180 134.5,-180"/>
<text text-anchor="middle" x="100.5" y="-158.3" font-family="Times,serif" font-size="14.00">Invocation</text>
</g>
<!-- Metadata&#45;&gt;Invocation -->
<g id="edge2" class="edge">
<title>Metadata&#45;&gt;Invocation</title>
<path fill="none" stroke="black" d="M68.88,-215.7C73.76,-207.56 79.69,-197.69 85.08,-188.7"/>
<polygon fill="black" stroke="black" points="88.09,-190.48 90.24,-180.1 82.09,-186.88 88.09,-190.48"/>
</g>
<!-- Receipt -->
<g id="node5" class="node">
<title>Receipt</title>
<path fill="none" stroke="black" d="M123,-108C123,-108 78,-108 78,-108 72,-108 66,-102 66,-96 66,-96 66,-84 66,-84 66,-78 72,-72 78,-72 78,-72 123,-72 123,-72 129,-72 135,-78 135,-84 135,-84 135,-96 135,-96 135,-102 129,-108 123,-108"/>
<text text-anchor="middle" x="100.5" y="-86.3" font-family="Times,serif" font-size="14.00">Receipt</text>
</g>
<!-- Invocation&#45;&gt;Receipt -->
<g id="edge5" class="edge">
<title>Invocation&#45;&gt;Receipt</title>
<path fill="none" stroke="black" d="M100.5,-143.7C100.5,-135.98 100.5,-126.71 100.5,-118.11"/>
<polygon fill="black" stroke="black" points="104,-118.1 100.5,-108.1 97,-118.1 104,-118.1"/>
</g>
<!-- Batch&#45;&gt;Invocation -->
<g id="edge4" class="edge">
<title>Batch&#45;&gt;Invocation</title>
<path fill="none" stroke="black" d="M132.12,-215.7C127.24,-207.56 121.31,-197.69 115.92,-188.7"/>
<polygon fill="black" stroke="black" points="118.91,-186.88 110.76,-180.1 112.91,-190.48 118.91,-186.88"/>
</g>
<!-- Memoization -->
<g id="node6" class="node">
<title>Memoization</title>
<path fill="none" stroke="black" d="M87,-36C87,-36 12,-36 12,-36 6,-36 0,-30 0,-24 0,-24 0,-12 0,-12 0,-6 6,0 12,0 12,0 87,0 87,0 93,0 99,-6 99,-12 99,-12 99,-24 99,-24 99,-30 93,-36 87,-36"/>
<text text-anchor="middle" x="49.5" y="-14.3" font-family="Times,serif" font-size="14.00">Memoization</text>
</g>
<!-- Receipt&#45;&gt;Memoization -->
<g id="edge6" class="edge">
<title>Receipt&#45;&gt;Memoization</title>
<path fill="none" stroke="black" d="M87.89,-71.7C81.9,-63.47 74.62,-53.48 68.02,-44.42"/>
<polygon fill="black" stroke="black" points="70.68,-42.13 61.96,-36.1 65.02,-46.25 70.68,-42.13"/>
</g>
<!-- Promise -->
<g id="node7" class="node">
<title>Promise</title>
<path fill="none" stroke="black" d="M174,-36C174,-36 129,-36 129,-36 123,-36 117,-30 117,-24 117,-24 117,-12 117,-12 117,-6 123,0 129,0 129,0 174,0 174,0 180,0 186,-6 186,-12 186,-12 186,-24 186,-24 186,-30 180,-36 174,-36"/>
<text text-anchor="middle" x="151.5" y="-14.3" font-family="Times,serif" font-size="14.00">Promise</text>
</g>
<!-- Receipt&#45;&gt;Promise -->
<g id="edge7" class="edge">
<title>Receipt&#45;&gt;Promise</title>
<path fill="none" stroke="black" d="M113.11,-71.7C119.1,-63.47 126.38,-53.48 132.98,-44.42"/>
<polygon fill="black" stroke="black" points="135.98,-46.25 139.04,-36.1 130.32,-42.13 135.98,-46.25"/>
</g>
</g>
</svg>
