<?xml version="1.0" encoding="UTF-8" standalone="no"?>
<!DOCTYPE svg PUBLIC "-//W3C//DTD SVG 1.1//EN"
 "http://www.w3.org/Graphics/SVG/1.1/DTD/svg11.dtd">
<!-- Generated by graphviz version 2.44.0 ()
 -->
<!-- Pages: 1 -->
<svg width="250pt" height="332pt"
 viewBox="0.00 0.00 249.50 332.00" xmlns="http://www.w3.org/2000/svg" xmlns:xlink="http://www.w3.org/1999/xlink">
<g id="graph0" class="graph" transform="scale(1 1) rotate(0) translate(4 328)">
<polygon fill="white" stroke="transparent" points="-4,4 -4,-328 245.5,-328 245.5,4 -4,4"/>
<!-- Receipt -->
<g id="node1" class="node">
<title>Receipt</title>
<path fill="none" stroke="black" d="M157,-180C157,-180 112,-180 112,-180 106,-180 100,-174 100,-168 100,-168 100,-156 100,-156 100,-150 106,-144 112,-144 112,-144 157,-144 157,-144 163,-144 169,-150 169,-156 169,-156 169,-168 169,-168 169,-174 163,-180 157,-180"/>
<text text-anchor="middle" x="134.5" y="-158.3" font-family="Times,serif" font-size="14.00">Receipt</text>
</g>
<!-- Memoization -->
<g id="node2" class="node">
<title>Memoization</title>
<path fill="none" stroke="black" d="M87,-108C87,-108 12,-108 12,-108 6,-108 0,-102 0,-96 0,-96 0,-84 0,-84 0,-78 6,-72 12,-72 12,-72 87,-72 87,-72 93,-72 99,-78 99,-84 99,-84 99,-96 99,-96 99,-102 93,-108 87,-108"/>
<text text-anchor="middle" x="49.5" y="-86.3" font-family="Times,serif" font-size="14.00">Memoization</text>
</g>
<!-- Receipt&#45;&gt;Memoization -->
<g id="edge1" class="edge">
<title>Receipt&#45;&gt;Memoization</title>
<path fill="none" stroke="black" d="M113.49,-143.7C102.78,-134.88 89.61,-124.03 78,-114.47"/>
<polygon fill="black" stroke="black" points="80.21,-111.76 70.27,-108.1 75.76,-117.16 80.21,-111.76"/>
</g>
<!-- Promise -->
<g id="node5" class="node">
<title>Promise</title>
<path fill="none" stroke="black" d="M174,-108C174,-108 129,-108 129,-108 123,-108 117,-102 117,-96 117,-96 117,-84 117,-84 117,-78 123,-72 129,-72 129,-72 174,-72 174,-72 180,-72 186,-78 186,-84 186,-84 186,-96 186,-96 186,-102 180,-108 174,-108"/>
<text text-anchor="middle" x="151.5" y="-86.3" font-family="Times,serif" font-size="14.00">Promise</text>
</g>
<!-- Receipt&#45;&gt;Promise -->
<g id="edge4" class="edge">
<title>Receipt&#45;&gt;Promise</title>
<path fill="none" stroke="black" d="M138.7,-143.7C140.6,-135.9 142.88,-126.51 144.98,-117.83"/>
<polygon fill="black" stroke="black" points="148.39,-118.65 147.35,-108.1 141.58,-117 148.39,-118.65"/>
</g>
<!-- Invocation -->
<g id="node3" class="node">
<title>Invocation</title>
<path fill="none" stroke="black" d="M208.5,-324C208.5,-324 140.5,-324 140.5,-324 134.5,-324 128.5,-318 128.5,-312 128.5,-312 128.5,-300 128.5,-300 128.5,-294 134.5,-288 140.5,-288 140.5,-288 208.5,-288 208.5,-288 214.5,-288 220.5,-294 220.5,-300 220.5,-300 220.5,-312 220.5,-312 220.5,-318 214.5,-324 208.5,-324"/>
<text text-anchor="middle" x="174.5" y="-302.3" font-family="Times,serif" font-size="14.00">Invocation</text>
</g>
<!-- Envelope -->
<g id="node4" class="node">
<title>Envelope</title>
<path fill="none" stroke="black" d="M201,-252C201,-252 148,-252 148,-252 142,-252 136,-246 136,-240 136,-240 136,-228 136,-228 136,-222 142,-216 148,-216 148,-216 201,-216 201,-216 207,-216 213,-222 213,-228 213,-228 213,-240 213,-240 213,-246 207,-252 201,-252"/>
<text text-anchor="middle" x="174.5" y="-230.3" font-family="Times,serif" font-size="14.00">Envelope</text>
</g>
<!-- Invocation&#45;&gt;Envelope -->
<g id="edge2" class="edge">
<title>Invocation&#45;&gt;Envelope</title>
<path fill="none" stroke="black" d="M174.5,-287.7C174.5,-279.98 174.5,-270.71 174.5,-262.11"/>
<polygon fill="black" stroke="black" points="178,-262.1 174.5,-252.1 171,-262.1 178,-262.1"/>
</g>
<!-- Envelope&#45;&gt;Receipt -->
<g id="edge3" class="edge">
<title>Envelope&#45;&gt;Receipt</title>
<path fill="none" stroke="black" d="M164.61,-215.7C160.01,-207.64 154.44,-197.89 149.35,-188.98"/>
<polygon fill="black" stroke="black" points="152.27,-187.05 144.27,-180.1 146.2,-190.52 152.27,-187.05"/>
</g>
<!-- Batch -->
<g id="node7" class="node">
<title>Batch</title>
<path fill="none" stroke="black" d="M229.5,-180C229.5,-180 199.5,-180 199.5,-180 193.5,-180 187.5,-174 187.5,-168 187.5,-168 187.5,-156 187.5,-156 187.5,-150 193.5,-144 199.5,-144 199.5,-144 229.5,-144 229.5,-144 235.5,-144 241.5,-150 241.5,-156 241.5,-156 241.5,-168 241.5,-168 241.5,-174 235.5,-180 229.5,-180"/>
<text text-anchor="middle" x="214.5" y="-158.3" font-family="Times,serif" font-size="14.00">Batch</text>
</g>
<!-- Envelope&#45;&gt;Batch -->
<g id="edge6" class="edge">
<title>Envelope&#45;&gt;Batch</title>
<path fill="none" stroke="black" d="M184.39,-215.7C188.99,-207.64 194.56,-197.89 199.65,-188.98"/>
<polygon fill="black" stroke="black" points="202.8,-190.52 204.73,-180.1 196.73,-187.05 202.8,-190.52"/>
</g>
<!-- Pipeline -->
<g id="node6" class="node">
<title>Pipeline</title>
<path fill="none" stroke="black" d="M209,-36C209,-36 156,-36 156,-36 150,-36 144,-30 144,-24 144,-24 144,-12 144,-12 144,-6 150,0 156,0 156,0 209,0 209,0 215,0 221,-6 221,-12 221,-12 221,-24 221,-24 221,-30 215,-36 209,-36"/>
<text text-anchor="middle" x="182.5" y="-14.3" font-family="Times,serif" font-size="14.00">Pipeline</text>
</g>
<!-- Promise&#45;&gt;Pipeline -->
<g id="edge5" class="edge">
<title>Promise&#45;&gt;Pipeline</title>
<path fill="none" stroke="black" d="M159.16,-71.7C162.69,-63.73 166.96,-54.1 170.87,-45.26"/>
<polygon fill="black" stroke="black" points="174.08,-46.67 174.93,-36.1 167.68,-43.83 174.08,-46.67"/>
</g>
<!-- Batch&#45;&gt;Pipeline -->
<g id="edge7" class="edge">
<title>Batch&#45;&gt;Pipeline</title>
<path fill="none" stroke="black" d="M210.67,-143.94C206.65,-126.02 200.15,-97.03 194.5,-72 192.6,-63.59 190.53,-54.43 188.65,-46.12"/>
<polygon fill="black" stroke="black" points="192.02,-45.16 186.4,-36.18 185.19,-46.71 192.02,-45.16"/>
</g>
</g>
</svg>
