<?xml version="1.0" encoding="UTF-8" standalone="no"?>
<!DOCTYPE svg PUBLIC "-//W3C//DTD SVG 1.1//EN"
 "http://www.w3.org/Graphics/SVG/1.1/DTD/svg11.dtd">
<!-- Generated by graphviz version 2.44.0 ()
 -->
<!-- Pages: 1 -->
<svg width="1027pt" height="98pt"
 viewBox="0.00 0.00 1027.00 98.00" xmlns="http://www.w3.org/2000/svg" xmlns:xlink="http://www.w3.org/1999/xlink">
<g id="graph0" class="graph" transform="scale(1 1) rotate(0) translate(4 94)">
<polygon fill="white" stroke="transparent" points="-4,4 -4,-94 1023,-94 1023,4 -4,4"/>
<!-- Closure -->
<g id="node1" class="node">
<title>Closure</title>
<path fill="none" stroke="black" d="M57,-63C57,-63 12,-63 12,-63 6,-63 0,-57 0,-51 0,-51 0,-39 0,-39 0,-33 6,-27 12,-27 12,-27 57,-27 57,-27 63,-27 69,-33 69,-39 69,-39 69,-51 69,-51 69,-57 63,-63 57,-63"/>
<text text-anchor="middle" x="34.5" y="-41.3" font-family="Times,serif" font-size="14.00">Closure</text>
</g>
<!-- Task -->
<g id="node2" class="node">
<title>Task</title>
<path fill="none" stroke="black" d="M185,-63C185,-63 155,-63 155,-63 149,-63 143,-57 143,-51 143,-51 143,-39 143,-39 143,-33 149,-27 155,-27 155,-27 185,-27 185,-27 191,-27 197,-33 197,-39 197,-39 197,-51 197,-51 197,-57 191,-63 185,-63"/>
<text text-anchor="middle" x="170" y="-41.3" font-family="Times,serif" font-size="14.00">Task</text>
</g>
<!-- Closure&#45;&gt;Task -->
<g id="edge1" class="edge">
<title>Closure&#45;&gt;Task</title>
<path fill="none" stroke="black" d="M69.19,-45C88.57,-45 112.92,-45 132.72,-45"/>
<polygon fill="black" stroke="black" points="132.9,-48.5 142.9,-45 132.9,-41.5 132.9,-48.5"/>
<text text-anchor="middle" x="106" y="-48.8" font-family="Times,serif" font-size="14.00">+Meta</text>
</g>
<!-- Batch -->
<g id="node3" class="node">
<title>Batch</title>
<path fill="none" stroke="black" d="M306,-63C306,-63 276,-63 276,-63 270,-63 264,-57 264,-51 264,-51 264,-39 264,-39 264,-33 270,-27 276,-27 276,-27 306,-27 306,-27 312,-27 318,-33 318,-39 318,-39 318,-51 318,-51 318,-57 312,-63 306,-63"/>
<text text-anchor="middle" x="291" y="-41.3" font-family="Times,serif" font-size="14.00">Batch</text>
</g>
<!-- Task&#45;&gt;Batch -->
<g id="edge2" class="edge">
<title>Task&#45;&gt;Batch</title>
<path fill="none" stroke="black" d="M197.12,-45C213.78,-45 235.61,-45 253.92,-45"/>
<polygon fill="black" stroke="black" points="253.95,-48.5 263.95,-45 253.95,-41.5 253.95,-48.5"/>
<text text-anchor="middle" x="230.5" y="-68.8" font-family="Times,serif" font-size="14.00">Many</text>
</g>
<!-- Task&#45;&gt;Batch -->
<g id="edge3" class="edge">
<title>Task&#45;&gt;Batch</title>
<path fill="none" stroke="black" d="M197.12,-39.3C213.78,-38.12 235.61,-37.94 253.92,-38.74"/>
<polygon fill="black" stroke="black" points="253.76,-42.23 263.95,-39.3 254.16,-35.25 253.76,-42.23"/>
</g>
<!-- Task&#45;&gt;Batch -->
<g id="edge4" class="edge">
<title>Task&#45;&gt;Batch</title>
<path fill="none" stroke="black" d="M197.12,-50.7C213.78,-51.88 235.61,-52.06 253.92,-51.26"/>
<polygon fill="black" stroke="black" points="254.16,-54.75 263.95,-50.7 253.76,-47.77 254.16,-54.75"/>
</g>
<!-- Invocation -->
<g id="node4" class="node">
<title>Invocation</title>
<path fill="none" stroke="black" d="M472,-63C472,-63 404,-63 404,-63 398,-63 392,-57 392,-51 392,-51 392,-39 392,-39 392,-33 398,-27 404,-27 404,-27 472,-27 472,-27 478,-27 484,-33 484,-39 484,-39 484,-51 484,-51 484,-57 478,-63 472,-63"/>
<text text-anchor="middle" x="438" y="-41.3" font-family="Times,serif" font-size="14.00">Invocation</text>
</g>
<!-- Batch&#45;&gt;Invocation -->
<g id="edge5" class="edge">
<title>Batch&#45;&gt;Invocation</title>
<path fill="none" stroke="black" d="M318.26,-45C335.94,-45 359.93,-45 381.71,-45"/>
<polygon fill="black" stroke="black" points="381.86,-48.5 391.86,-45 381.86,-41.5 381.86,-48.5"/>
<text text-anchor="middle" x="355" y="-48.8" font-family="Times,serif" font-size="14.00">+Auth</text>
</g>
<!-- Result -->
<g id="node5" class="node">
<title>Result</title>
<path fill="none" stroke="black" d="M616,-63C616,-63 578,-63 578,-63 572,-63 566,-57 566,-51 566,-51 566,-39 566,-39 566,-33 572,-27 578,-27 578,-27 616,-27 616,-27 622,-27 628,-33 628,-39 628,-39 628,-51 628,-51 628,-57 622,-63 616,-63"/>
<text text-anchor="middle" x="597" y="-41.3" font-family="Times,serif" font-size="14.00">Result</text>
</g>
<!-- Invocation&#45;&gt;Result -->
<g id="edge6" class="edge">
<title>Invocation&#45;&gt;Result</title>
<path fill="none" stroke="black" d="M484.41,-45C506.83,-45 533.64,-45 555.37,-45"/>
<polygon fill="black" stroke="black" points="555.59,-48.5 565.59,-45 555.59,-41.5 555.59,-48.5"/>
<text text-anchor="middle" x="525" y="-48.8" font-family="Times,serif" font-size="14.00">Output</text>
</g>
<!-- Promise -->
<g id="node6" class="node">
<title>Promise</title>
<path fill="none" stroke="black" d="M774,-90C774,-90 729,-90 729,-90 723,-90 717,-84 717,-78 717,-78 717,-66 717,-66 717,-60 723,-54 729,-54 729,-54 774,-54 774,-54 780,-54 786,-60 786,-66 786,-66 786,-78 786,-78 786,-84 780,-90 774,-90"/>
<text text-anchor="middle" x="751.5" y="-68.3" font-family="Times,serif" font-size="14.00">Promise</text>
</g>
<!-- Result&#45;&gt;Promise -->
<g id="edge7" class="edge">
<title>Result&#45;&gt;Promise</title>
<path fill="none" stroke="black" d="M628.13,-50.33C650.64,-54.32 681.73,-59.82 706.94,-64.29"/>
<polygon fill="black" stroke="black" points="706.53,-67.77 716.99,-66.07 707.75,-60.88 706.53,-67.77"/>
<text text-anchor="middle" x="672.5" y="-65.8" font-family="Times,serif" font-size="14.00">Consume</text>
</g>
<!-- Receipt -->
<g id="node7" class="node">
<title>Receipt</title>
<path fill="none" stroke="black" d="M774,-36C774,-36 729,-36 729,-36 723,-36 717,-30 717,-24 717,-24 717,-12 717,-12 717,-6 723,0 729,0 729,0 774,0 774,0 780,0 786,-6 786,-12 786,-12 786,-24 786,-24 786,-30 780,-36 774,-36"/>
<text text-anchor="middle" x="751.5" y="-14.3" font-family="Times,serif" font-size="14.00">Receipt</text>
</g>
<!-- Result&#45;&gt;Receipt -->
<g id="edge8" class="edge">
<title>Result&#45;&gt;Receipt</title>
<path fill="none" stroke="black" d="M628.13,-39.67C650.64,-35.68 681.73,-30.18 706.94,-25.71"/>
<polygon fill="black" stroke="black" points="707.75,-29.12 716.99,-23.93 706.53,-22.23 707.75,-29.12"/>
<text text-anchor="middle" x="672.5" y="-37.8" font-family="Times,serif" font-size="14.00">+Attest</text>
</g>
<!-- Memoization -->
<g id="node8" class="node">
<title>Memoization</title>
<path fill="none" stroke="black" d="M1007,-36C1007,-36 932,-36 932,-36 926,-36 920,-30 920,-24 920,-24 920,-12 920,-12 920,-6 926,0 932,0 932,0 1007,0 1007,0 1013,0 1019,-6 1019,-12 1019,-12 1019,-24 1019,-24 1019,-30 1013,-36 1007,-36"/>
<text text-anchor="middle" x="969.5" y="-14.3" font-family="Times,serif" font-size="14.00">Memoization</text>
</g>
<!-- Receipt&#45;&gt;Memoization -->
<g id="edge9" class="edge">
<title>Receipt&#45;&gt;Memoization</title>
<path fill="none" stroke="black" d="M786.25,-18C819.21,-18 870.06,-18 909.68,-18"/>
<polygon fill="black" stroke="black" points="909.76,-21.5 919.76,-18 909.76,-14.5 909.76,-21.5"/>
<text text-anchor="middle" x="853" y="-21.8" font-family="Times,serif" font-size="14.00">Short&#45;circuit</text>
</g>
</g>
</svg>
