<?xml version="1.0" encoding="UTF-8" standalone="no"?>
<!DOCTYPE svg PUBLIC "-//W3C//DTD SVG 1.1//EN"
 "http://www.w3.org/Graphics/SVG/1.1/DTD/svg11.dtd">
<!-- Generated by graphviz version 2.44.0 ()
 -->
<!-- Pages: 1 -->
<svg width="453pt" height="144pt"
 viewBox="0.00 0.00 453.00 144.00" xmlns="http://www.w3.org/2000/svg" xmlns:xlink="http://www.w3.org/1999/xlink">
<g id="graph0" class="graph" transform="scale(1 1) rotate(0) translate(4 140)">
<polygon fill="white" stroke="transparent" points="-4,4 -4,-140 449,-140 449,4 -4,4"/>
<!-- Receipt -->
<g id="node1" class="node">
<title>Receipt</title>
<path fill="none" stroke="black" d="M185,-90C185,-90 140,-90 140,-90 134,-90 128,-84 128,-78 128,-78 128,-66 128,-66 128,-60 134,-54 140,-54 140,-54 185,-54 185,-54 191,-54 197,-60 197,-66 197,-66 197,-78 197,-78 197,-84 191,-90 185,-90"/>
<text text-anchor="middle" x="162.5" y="-68.3" font-family="Times,serif" font-size="14.00">Receipt</text>
</g>
<!-- Memoization -->
<g id="node2" class="node">
<title>Memoization</title>
<path fill="none" stroke="black" d="M320,-136C320,-136 245,-136 245,-136 239,-136 233,-130 233,-124 233,-124 233,-112 233,-112 233,-106 239,-100 245,-100 245,-100 320,-100 320,-100 326,-100 332,-106 332,-112 332,-112 332,-124 332,-124 332,-130 326,-136 320,-136"/>
<text text-anchor="middle" x="282.5" y="-114.3" font-family="Times,serif" font-size="14.00">Memoization</text>
</g>
<!-- Receipt&#45;&gt;Memoization -->
<g id="edge1" class="edge">
<title>Receipt&#45;&gt;Memoization</title>
<path fill="none" stroke="black" d="M197.31,-85.18C206.1,-88.61 215.8,-92.39 225.4,-96.13"/>
<polygon fill="black" stroke="black" points="224.34,-99.47 234.93,-99.85 226.88,-92.95 224.34,-99.47"/>
</g>
<!-- Promise -->
<g id="node4" class="node">
<title>Promise</title>
<path fill="none" stroke="black" d="M305,-82C305,-82 260,-82 260,-82 254,-82 248,-76 248,-70 248,-70 248,-58 248,-58 248,-52 254,-46 260,-46 260,-46 305,-46 305,-46 311,-46 317,-52 317,-58 317,-58 317,-70 317,-70 317,-76 311,-82 305,-82"/>
<text text-anchor="middle" x="282.5" y="-60.3" font-family="Times,serif" font-size="14.00">Promise</text>
</g>
<!-- Receipt&#45;&gt;Promise -->
<g id="edge3" class="edge">
<title>Receipt&#45;&gt;Promise</title>
<path fill="none" stroke="black" d="M197.31,-69.71C209.78,-68.86 224.1,-67.89 237.34,-66.99"/>
<polygon fill="black" stroke="black" points="237.94,-70.46 247.68,-66.29 237.47,-63.48 237.94,-70.46"/>
</g>
<!-- Invocation -->
<g id="node3" class="node">
<title>Invocation</title>
<path fill="none" stroke="black" d="M80,-63C80,-63 12,-63 12,-63 6,-63 0,-57 0,-51 0,-51 0,-39 0,-39 0,-33 6,-27 12,-27 12,-27 80,-27 80,-27 86,-27 92,-33 92,-39 92,-39 92,-51 92,-51 92,-57 86,-63 80,-63"/>
<text text-anchor="middle" x="46" y="-41.3" font-family="Times,serif" font-size="14.00">Invocation</text>
</g>
<!-- Invocation&#45;&gt;Receipt -->
<g id="edge2" class="edge">
<title>Invocation&#45;&gt;Receipt</title>
<path fill="none" stroke="black" d="M92.25,-55.67C100.7,-57.66 109.51,-59.74 117.9,-61.72"/>
<polygon fill="black" stroke="black" points="117.34,-65.18 127.88,-64.07 118.95,-58.37 117.34,-65.18"/>
</g>
<!-- Batch -->
<g id="node6" class="node">
<title>Batch</title>
<path fill="none" stroke="black" d="M177.5,-36C177.5,-36 147.5,-36 147.5,-36 141.5,-36 135.5,-30 135.5,-24 135.5,-24 135.5,-12 135.5,-12 135.5,-6 141.5,0 147.5,0 147.5,0 177.5,0 177.5,0 183.5,0 189.5,-6 189.5,-12 189.5,-12 189.5,-24 189.5,-24 189.5,-30 183.5,-36 177.5,-36"/>
<text text-anchor="middle" x="162.5" y="-14.3" font-family="Times,serif" font-size="14.00">Batch</text>
</g>
<!-- Invocation&#45;&gt;Batch -->
<g id="edge5" class="edge">
<title>Invocation&#45;&gt;Batch</title>
<path fill="none" stroke="black" d="M92.25,-34.33C103.34,-31.72 115.05,-28.95 125.63,-26.46"/>
<polygon fill="black" stroke="black" points="126.43,-29.87 135.36,-24.16 124.83,-23.05 126.43,-29.87"/>
</g>
<!-- Pipeline -->
<g id="node5" class="node">
<title>Pipeline</title>
<path fill="none" stroke="black" d="M433,-59C433,-59 380,-59 380,-59 374,-59 368,-53 368,-47 368,-47 368,-35 368,-35 368,-29 374,-23 380,-23 380,-23 433,-23 433,-23 439,-23 445,-29 445,-35 445,-35 445,-47 445,-47 445,-53 439,-59 433,-59"/>
<text text-anchor="middle" x="406.5" y="-37.3" font-family="Times,serif" font-size="14.00">Pipeline</text>
</g>
<!-- Promise&#45;&gt;Pipeline -->
<g id="edge4" class="edge">
<title>Promise&#45;&gt;Pipeline</title>
<path fill="none" stroke="black" d="M317.16,-57.65C329.64,-55.3 344.04,-52.59 357.54,-50.04"/>
<polygon fill="black" stroke="black" points="358.47,-53.43 367.65,-48.14 357.18,-46.55 358.47,-53.43"/>
</g>
<!-- Batch&#45;&gt;Pipeline -->
<g id="edge6" class="edge">
<title>Batch&#45;&gt;Pipeline</title>
<path fill="none" stroke="black" d="M189.86,-20.51C230.09,-24.33 307.42,-31.68 357.71,-36.46"/>
<polygon fill="black" stroke="black" points="357.41,-39.95 367.7,-37.41 358.07,-32.98 357.41,-39.95"/>
</g>
</g>
</svg>
