<?xml version="1.0" encoding="UTF-8" standalone="no"?>
<!DOCTYPE svg PUBLIC "-//W3C//DTD SVG 1.1//EN"
 "http://www.w3.org/Graphics/SVG/1.1/DTD/svg11.dtd">
<!-- Generated by graphviz version 2.44.0 ()
 -->
<!-- Pages: 1 -->
<svg width="453pt" height="152pt"
 viewBox="0.00 0.00 453.00 152.00" xmlns="http://www.w3.org/2000/svg" xmlns:xlink="http://www.w3.org/1999/xlink">
<g id="graph0" class="graph" transform="scale(1 1) rotate(0) translate(4 148)">
<polygon fill="white" stroke="transparent" points="-4,4 -4,-148 449,-148 449,4 -4,4"/>
<!-- Invocation -->
<g id="node1" class="node">
<title>Invocation</title>
<path fill="none" stroke="black" d="M80,-90C80,-90 12,-90 12,-90 6,-90 0,-84 0,-78 0,-78 0,-66 0,-66 0,-60 6,-54 12,-54 12,-54 80,-54 80,-54 86,-54 92,-60 92,-66 92,-66 92,-78 92,-78 92,-84 86,-90 80,-90"/>
<text text-anchor="middle" x="46" y="-68.3" font-family="Times,serif" font-size="14.00">Invocation</text>
</g>
<!-- Pointer -->
<g id="node2" class="node">
<title>Pointer</title>
<path fill="none" stroke="black" d="M185,-144C185,-144 140,-144 140,-144 134,-144 128,-138 128,-132 128,-132 128,-120 128,-120 128,-114 134,-108 140,-108 140,-108 185,-108 185,-108 191,-108 197,-114 197,-120 197,-120 197,-132 197,-132 197,-138 191,-144 185,-144"/>
<text text-anchor="middle" x="162.5" y="-122.3" font-family="Times,serif" font-size="14.00">Pointer</text>
</g>
<!-- Invocation&#45;&gt;Pointer -->
<g id="edge1" class="edge">
<title>Invocation&#45;&gt;Pointer</title>
<path fill="none" stroke="black" d="M85.45,-90.13C96.1,-95.16 107.73,-100.64 118.62,-105.78"/>
<polygon fill="black" stroke="black" points="117.41,-109.08 127.95,-110.18 120.4,-102.75 117.41,-109.08"/>
</g>
<!-- Receipt -->
<g id="node4" class="node">
<title>Receipt</title>
<path fill="none" stroke="black" d="M185,-90C185,-90 140,-90 140,-90 134,-90 128,-84 128,-78 128,-78 128,-66 128,-66 128,-60 134,-54 140,-54 140,-54 185,-54 185,-54 191,-54 197,-60 197,-66 197,-66 197,-78 197,-78 197,-84 191,-90 185,-90"/>
<text text-anchor="middle" x="162.5" y="-68.3" font-family="Times,serif" font-size="14.00">Receipt</text>
</g>
<!-- Invocation&#45;&gt;Receipt -->
<g id="edge4" class="edge">
<title>Invocation&#45;&gt;Receipt</title>
<path fill="none" stroke="black" d="M92.25,-72C100.6,-72 109.31,-72 117.62,-72"/>
<polygon fill="black" stroke="black" points="117.88,-75.5 127.88,-72 117.88,-68.5 117.88,-75.5"/>
</g>
<!-- Batch -->
<g id="node7" class="node">
<title>Batch</title>
<path fill="none" stroke="black" d="M297.5,-36C297.5,-36 267.5,-36 267.5,-36 261.5,-36 255.5,-30 255.5,-24 255.5,-24 255.5,-12 255.5,-12 255.5,-6 261.5,0 267.5,0 267.5,0 297.5,0 297.5,0 303.5,0 309.5,-6 309.5,-12 309.5,-12 309.5,-24 309.5,-24 309.5,-30 303.5,-36 297.5,-36"/>
<text text-anchor="middle" x="282.5" y="-14.3" font-family="Times,serif" font-size="14.00">Batch</text>
</g>
<!-- Invocation&#45;&gt;Batch -->
<g id="edge7" class="edge">
<title>Invocation&#45;&gt;Batch</title>
<path fill="none" stroke="black" d="M92.06,-55.67C103.67,-51.83 116.22,-47.98 128,-45 167.71,-34.95 214.13,-27.34 245.44,-22.81"/>
<polygon fill="black" stroke="black" points="246.04,-26.26 255.45,-21.39 245.06,-19.33 246.04,-26.26"/>
</g>
<!-- Memoization -->
<g id="node3" class="node">
<title>Memoization</title>
<path fill="none" stroke="black" d="M320,-144C320,-144 245,-144 245,-144 239,-144 233,-138 233,-132 233,-132 233,-120 233,-120 233,-114 239,-108 245,-108 245,-108 320,-108 320,-108 326,-108 332,-114 332,-120 332,-120 332,-132 332,-132 332,-138 326,-144 320,-144"/>
<text text-anchor="middle" x="282.5" y="-122.3" font-family="Times,serif" font-size="14.00">Memoization</text>
</g>
<!-- Pointer&#45;&gt;Memoization -->
<g id="edge2" class="edge">
<title>Pointer&#45;&gt;Memoization</title>
<path fill="none" stroke="black" d="M197.31,-126C205.24,-126 213.92,-126 222.6,-126"/>
<polygon fill="black" stroke="black" points="222.73,-129.5 232.73,-126 222.73,-122.5 222.73,-129.5"/>
</g>
<!-- Receipt&#45;&gt;Memoization -->
<g id="edge3" class="edge">
<title>Receipt&#45;&gt;Memoization</title>
<path fill="none" stroke="black" d="M197.31,-87.47C208.28,-92.49 220.67,-98.16 232.5,-103.58"/>
<polygon fill="black" stroke="black" points="231.29,-106.87 241.84,-107.85 234.2,-100.51 231.29,-106.87"/>
</g>
<!-- Promise -->
<g id="node5" class="node">
<title>Promise</title>
<path fill="none" stroke="black" d="M305,-90C305,-90 260,-90 260,-90 254,-90 248,-84 248,-78 248,-78 248,-66 248,-66 248,-60 254,-54 260,-54 260,-54 305,-54 305,-54 311,-54 317,-60 317,-66 317,-66 317,-78 317,-78 317,-84 311,-90 305,-90"/>
<text text-anchor="middle" x="282.5" y="-68.3" font-family="Times,serif" font-size="14.00">Promise</text>
</g>
<!-- Receipt&#45;&gt;Promise -->
<g id="edge5" class="edge">
<title>Receipt&#45;&gt;Promise</title>
<path fill="none" stroke="black" d="M197.31,-72C209.78,-72 224.1,-72 237.34,-72"/>
<polygon fill="black" stroke="black" points="237.68,-75.5 247.68,-72 237.68,-68.5 237.68,-75.5"/>
</g>
<!-- Pipeline -->
<g id="node6" class="node">
<title>Pipeline</title>
<path fill="none" stroke="black" d="M433,-63C433,-63 380,-63 380,-63 374,-63 368,-57 368,-51 368,-51 368,-39 368,-39 368,-33 374,-27 380,-27 380,-27 433,-27 433,-27 439,-27 445,-33 445,-39 445,-39 445,-51 445,-51 445,-57 439,-63 433,-63"/>
<text text-anchor="middle" x="406.5" y="-41.3" font-family="Times,serif" font-size="14.00">Pipeline</text>
</g>
<!-- Promise&#45;&gt;Pipeline -->
<g id="edge6" class="edge">
<title>Promise&#45;&gt;Pipeline</title>
<path fill="none" stroke="black" d="M317.16,-64.55C329.64,-61.79 344.04,-58.6 357.54,-55.61"/>
<polygon fill="black" stroke="black" points="358.64,-58.95 367.65,-53.38 357.13,-52.12 358.64,-58.95"/>
</g>
<!-- Batch&#45;&gt;Pipeline -->
<g id="edge8" class="edge">
<title>Batch&#45;&gt;Pipeline</title>
<path fill="none" stroke="black" d="M309.67,-23.79C323.7,-26.9 341.43,-30.82 357.81,-34.45"/>
<polygon fill="black" stroke="black" points="357.28,-37.91 367.8,-36.66 358.79,-31.08 357.28,-37.91"/>
</g>
</g>
</svg>
