<?xml version="1.0" encoding="UTF-8" standalone="no"?>
<!DOCTYPE svg PUBLIC "-//W3C//DTD SVG 1.1//EN"
 "http://www.w3.org/Graphics/SVG/1.1/DTD/svg11.dtd">
<!-- Generated by graphviz version 2.44.0 ()
 -->
<!-- Pages: 1 -->
<svg width="453pt" height="152pt"
 viewBox="0.00 0.00 453.00 152.00" xmlns="http://www.w3.org/2000/svg" xmlns:xlink="http://www.w3.org/1999/xlink">
<g id="graph0" class="graph" transform="scale(1 1) rotate(0) translate(4 148)">
<polygon fill="white" stroke="transparent" points="-4,4 -4,-148 449,-148 449,4 -4,4"/>
<!-- Invocation -->
<g id="node1" class="node">
<title>Invocation</title>
<path fill="none" stroke="black" d="M80,-90C80,-90 12,-90 12,-90 6,-90 0,-84 0,-78 0,-78 0,-66 0,-66 0,-60 6,-54 12,-54 12,-54 80,-54 80,-54 86,-54 92,-60 92,-66 92,-66 92,-78 92,-78 92,-84 86,-90 80,-90"/>
<text text-anchor="middle" x="46" y="-68.3" font-family="Times,serif" font-size="14.00">Invocation</text>
</g>
<!-- Batch -->
<g id="node2" class="node">
<title>Batch</title>
<path fill="none" stroke="black" d="M297.5,-144C297.5,-144 267.5,-144 267.5,-144 261.5,-144 255.5,-138 255.5,-132 255.5,-132 255.5,-120 255.5,-120 255.5,-114 261.5,-108 267.5,-108 267.5,-108 297.5,-108 297.5,-108 303.5,-108 309.5,-114 309.5,-120 309.5,-120 309.5,-132 309.5,-132 309.5,-138 303.5,-144 297.5,-144"/>
<text text-anchor="middle" x="282.5" y="-122.3" font-family="Times,serif" font-size="14.00">Batch</text>
</g>
<!-- Invocation&#45;&gt;Batch -->
<g id="edge1" class="edge">
<title>Invocation&#45;&gt;Batch</title>
<path fill="none" stroke="black" d="M92.06,-88.33C103.67,-92.17 116.22,-96.02 128,-99 167.71,-109.05 214.13,-116.66 245.44,-121.19"/>
<polygon fill="black" stroke="black" points="245.06,-124.67 255.45,-122.61 246.04,-117.74 245.06,-124.67"/>
</g>
<!-- Pointer -->
<g id="node4" class="node">
<title>Pointer</title>
<path fill="none" stroke="black" d="M185,-90C185,-90 140,-90 140,-90 134,-90 128,-84 128,-78 128,-78 128,-66 128,-66 128,-60 134,-54 140,-54 140,-54 185,-54 185,-54 191,-54 197,-60 197,-66 197,-66 197,-78 197,-78 197,-84 191,-90 185,-90"/>
<text text-anchor="middle" x="162.5" y="-68.3" font-family="Times,serif" font-size="14.00">Pointer</text>
</g>
<!-- Invocation&#45;&gt;Pointer -->
<g id="edge3" class="edge">
<title>Invocation&#45;&gt;Pointer</title>
<path fill="none" stroke="black" d="M92.25,-72C100.6,-72 109.31,-72 117.62,-72"/>
<polygon fill="black" stroke="black" points="117.88,-75.5 127.88,-72 117.88,-68.5 117.88,-75.5"/>
</g>
<!-- Receipt -->
<g id="node6" class="node">
<title>Receipt</title>
<path fill="none" stroke="black" d="M185,-36C185,-36 140,-36 140,-36 134,-36 128,-30 128,-24 128,-24 128,-12 128,-12 128,-6 134,0 140,0 140,0 185,0 185,0 191,0 197,-6 197,-12 197,-12 197,-24 197,-24 197,-30 191,-36 185,-36"/>
<text text-anchor="middle" x="162.5" y="-14.3" font-family="Times,serif" font-size="14.00">Receipt</text>
</g>
<!-- Invocation&#45;&gt;Receipt -->
<g id="edge5" class="edge">
<title>Invocation&#45;&gt;Receipt</title>
<path fill="none" stroke="black" d="M85.45,-53.87C96.1,-48.84 107.73,-43.36 118.62,-38.22"/>
<polygon fill="black" stroke="black" points="120.4,-41.25 127.95,-33.82 117.41,-34.92 120.4,-41.25"/>
</g>
<!-- Pipeline -->
<g id="node3" class="node">
<title>Pipeline</title>
<path fill="none" stroke="black" d="M433,-90C433,-90 380,-90 380,-90 374,-90 368,-84 368,-78 368,-78 368,-66 368,-66 368,-60 374,-54 380,-54 380,-54 433,-54 433,-54 439,-54 445,-60 445,-66 445,-66 445,-78 445,-78 445,-84 439,-90 433,-90"/>
<text text-anchor="middle" x="406.5" y="-68.3" font-family="Times,serif" font-size="14.00">Pipeline</text>
</g>
<!-- Batch&#45;&gt;Pipeline -->
<g id="edge2" class="edge">
<title>Batch&#45;&gt;Pipeline</title>
<path fill="none" stroke="black" d="M309.67,-114.42C323.84,-108.15 341.77,-100.21 358.28,-92.9"/>
<polygon fill="black" stroke="black" points="360.07,-95.94 367.8,-88.69 357.23,-89.54 360.07,-95.94"/>
</g>
<!-- Memoization -->
<g id="node5" class="node">
<title>Memoization</title>
<path fill="none" stroke="black" d="M320,-90C320,-90 245,-90 245,-90 239,-90 233,-84 233,-78 233,-78 233,-66 233,-66 233,-60 239,-54 245,-54 245,-54 320,-54 320,-54 326,-54 332,-60 332,-66 332,-66 332,-78 332,-78 332,-84 326,-90 320,-90"/>
<text text-anchor="middle" x="282.5" y="-68.3" font-family="Times,serif" font-size="14.00">Memoization</text>
</g>
<!-- Pointer&#45;&gt;Memoization -->
<g id="edge4" class="edge">
<title>Pointer&#45;&gt;Memoization</title>
<path fill="none" stroke="black" d="M197.31,-72C205.24,-72 213.92,-72 222.6,-72"/>
<polygon fill="black" stroke="black" points="222.73,-75.5 232.73,-72 222.73,-68.5 222.73,-75.5"/>
</g>
<!-- Promise -->
<g id="node7" class="node">
<title>Promise</title>
<path fill="none" stroke="black" d="M305,-36C305,-36 260,-36 260,-36 254,-36 248,-30 248,-24 248,-24 248,-12 248,-12 248,-6 254,0 260,0 260,0 305,0 305,0 311,0 317,-6 317,-12 317,-12 317,-24 317,-24 317,-30 311,-36 305,-36"/>
<text text-anchor="middle" x="282.5" y="-14.3" font-family="Times,serif" font-size="14.00">Promise</text>
</g>
<!-- Receipt&#45;&gt;Promise -->
<g id="edge6" class="edge">
<title>Receipt&#45;&gt;Promise</title>
<path fill="none" stroke="black" d="M197.31,-18C209.78,-18 224.1,-18 237.34,-18"/>
<polygon fill="black" stroke="black" points="237.68,-21.5 247.68,-18 237.68,-14.5 237.68,-21.5"/>
</g>
<!-- Promise&#45;&gt;Pipeline -->
<g id="edge7" class="edge">
<title>Promise&#45;&gt;Pipeline</title>
<path fill="none" stroke="black" d="M317.16,-32.9C329.88,-38.53 344.6,-45.05 358.34,-51.13"/>
<polygon fill="black" stroke="black" points="357.09,-54.4 367.65,-55.25 359.92,-48 357.09,-54.4"/>
</g>
</g>
</svg>
