<?xml version="1.0" encoding="UTF-8" standalone="no"?>
<!DOCTYPE svg PUBLIC "-//W3C//DTD SVG 1.1//EN"
 "http://www.w3.org/Graphics/SVG/1.1/DTD/svg11.dtd">
<!-- Generated by graphviz version 2.44.0 ()
 -->
<!-- Pages: 1 -->
<svg width="453pt" height="152pt"
 viewBox="0.00 0.00 453.00 152.00" xmlns="http://www.w3.org/2000/svg" xmlns:xlink="http://www.w3.org/1999/xlink">
<g id="graph0" class="graph" transform="scale(1 1) rotate(0) translate(4 148)">
<polygon fill="white" stroke="transparent" points="-4,4 -4,-148 449,-148 449,4 -4,4"/>
<!-- Invocation -->
<g id="node1" class="node">
<title>Invocation</title>
<path fill="none" stroke="black" d="M80,-90C80,-90 12,-90 12,-90 6,-90 0,-84 0,-78 0,-78 0,-66 0,-66 0,-60 6,-54 12,-54 12,-54 80,-54 80,-54 86,-54 92,-60 92,-66 92,-66 92,-78 92,-78 92,-84 86,-90 80,-90"/>
<text text-anchor="middle" x="46" y="-68.3" font-family="Times,serif" font-size="14.00">Invocation</text>
</g>
<!-- Pointer -->
<g id="node2" class="node">
<title>Pointer</title>
<path fill="none" stroke="black" d="M185,-140C185,-140 140,-140 140,-140 134,-140 128,-134 128,-128 128,-128 128,-116 128,-116 128,-110 134,-104 140,-104 140,-104 185,-104 185,-104 191,-104 197,-110 197,-116 197,-116 197,-128 197,-128 197,-134 191,-140 185,-140"/>
<text text-anchor="middle" x="162.5" y="-118.3" font-family="Times,serif" font-size="14.00">Pointer</text>
</g>
<!-- Invocation&#45;&gt;Pointer -->
<g id="edge1" class="edge">
<title>Invocation&#45;&gt;Pointer</title>
<path fill="none" stroke="black" d="M88.34,-90.05C98.14,-94.33 108.63,-98.91 118.5,-103.22"/>
<polygon fill="black" stroke="black" points="117.18,-106.47 127.75,-107.26 119.98,-100.05 117.18,-106.47"/>
</g>
<!-- Batch -->
<g id="node4" class="node">
<title>Batch</title>
<path fill="none" stroke="black" d="M297.5,-90C297.5,-90 267.5,-90 267.5,-90 261.5,-90 255.5,-84 255.5,-78 255.5,-78 255.5,-66 255.5,-66 255.5,-60 261.5,-54 267.5,-54 267.5,-54 297.5,-54 297.5,-54 303.5,-54 309.5,-60 309.5,-66 309.5,-66 309.5,-78 309.5,-78 309.5,-84 303.5,-90 297.5,-90"/>
<text text-anchor="middle" x="282.5" y="-68.3" font-family="Times,serif" font-size="14.00">Batch</text>
</g>
<!-- Invocation&#45;&gt;Batch -->
<g id="edge3" class="edge">
<title>Invocation&#45;&gt;Batch</title>
<path fill="none" stroke="black" d="M92.21,-72C136.78,-72 204.02,-72 245.21,-72"/>
<polygon fill="black" stroke="black" points="245.34,-75.5 255.34,-72 245.34,-68.5 245.34,-75.5"/>
</g>
<!-- Receipt -->
<g id="node6" class="node">
<title>Receipt</title>
<path fill="none" stroke="black" d="M185,-40C185,-40 140,-40 140,-40 134,-40 128,-34 128,-28 128,-28 128,-16 128,-16 128,-10 134,-4 140,-4 140,-4 185,-4 185,-4 191,-4 197,-10 197,-16 197,-16 197,-28 197,-28 197,-34 191,-40 185,-40"/>
<text text-anchor="middle" x="162.5" y="-18.3" font-family="Times,serif" font-size="14.00">Receipt</text>
</g>
<!-- Invocation&#45;&gt;Receipt -->
<g id="edge5" class="edge">
<title>Invocation&#45;&gt;Receipt</title>
<path fill="none" stroke="black" d="M88.34,-53.95C98.14,-49.67 108.63,-45.09 118.5,-40.78"/>
<polygon fill="black" stroke="black" points="119.98,-43.95 127.75,-36.74 117.18,-37.53 119.98,-43.95"/>
</g>
<!-- Memoization -->
<g id="node3" class="node">
<title>Memoization</title>
<path fill="none" stroke="black" d="M320,-144C320,-144 245,-144 245,-144 239,-144 233,-138 233,-132 233,-132 233,-120 233,-120 233,-114 239,-108 245,-108 245,-108 320,-108 320,-108 326,-108 332,-114 332,-120 332,-120 332,-132 332,-132 332,-138 326,-144 320,-144"/>
<text text-anchor="middle" x="282.5" y="-122.3" font-family="Times,serif" font-size="14.00">Memoization</text>
</g>
<!-- Pointer&#45;&gt;Memoization -->
<g id="edge2" class="edge">
<title>Pointer&#45;&gt;Memoization</title>
<path fill="none" stroke="black" d="M197.31,-123.15C205.24,-123.42 213.92,-123.71 222.6,-124"/>
<polygon fill="black" stroke="black" points="222.62,-127.51 232.73,-124.35 222.86,-120.51 222.62,-127.51"/>
</g>
<!-- Pipeline -->
<g id="node5" class="node">
<title>Pipeline</title>
<path fill="none" stroke="black" d="M433,-63C433,-63 380,-63 380,-63 374,-63 368,-57 368,-51 368,-51 368,-39 368,-39 368,-33 374,-27 380,-27 380,-27 433,-27 433,-27 439,-27 445,-33 445,-39 445,-39 445,-51 445,-51 445,-57 439,-63 433,-63"/>
<text text-anchor="middle" x="406.5" y="-41.3" font-family="Times,serif" font-size="14.00">Pipeline</text>
</g>
<!-- Batch&#45;&gt;Pipeline -->
<g id="edge4" class="edge">
<title>Batch&#45;&gt;Pipeline</title>
<path fill="none" stroke="black" d="M309.67,-66.21C323.7,-63.1 341.43,-59.18 357.81,-55.55"/>
<polygon fill="black" stroke="black" points="358.79,-58.92 367.8,-53.34 357.28,-52.09 358.79,-58.92"/>
</g>
<!-- Promise -->
<g id="node7" class="node">
<title>Promise</title>
<path fill="none" stroke="black" d="M305,-36C305,-36 260,-36 260,-36 254,-36 248,-30 248,-24 248,-24 248,-12 248,-12 248,-6 254,0 260,0 260,0 305,0 305,0 311,0 317,-6 317,-12 317,-12 317,-24 317,-24 317,-30 311,-36 305,-36"/>
<text text-anchor="middle" x="282.5" y="-14.3" font-family="Times,serif" font-size="14.00">Promise</text>
</g>
<!-- Receipt&#45;&gt;Promise -->
<g id="edge6" class="edge">
<title>Receipt&#45;&gt;Promise</title>
<path fill="none" stroke="black" d="M197.31,-20.85C209.78,-20.43 224.1,-19.95 237.34,-19.5"/>
<polygon fill="black" stroke="black" points="237.81,-22.98 247.68,-19.15 237.57,-15.99 237.81,-22.98"/>
</g>
<!-- Promise&#45;&gt;Pipeline -->
<g id="edge7" class="edge">
<title>Promise&#45;&gt;Pipeline</title>
<path fill="none" stroke="black" d="M317.16,-25.45C329.64,-28.21 344.04,-31.4 357.54,-34.39"/>
<polygon fill="black" stroke="black" points="357.13,-37.88 367.65,-36.62 358.64,-31.05 357.13,-37.88"/>
</g>
</g>
</svg>
