<?xml version="1.0" encoding="UTF-8" standalone="no"?>
<!DOCTYPE svg PUBLIC "-//W3C//DTD SVG 1.1//EN"
 "http://www.w3.org/Graphics/SVG/1.1/DTD/svg11.dtd">
<!-- Generated by graphviz version 2.44.0 ()
 -->
<!-- Pages: 1 -->
<svg width="370pt" height="314pt"
 viewBox="0.00 0.00 369.50 314.00" xmlns="http://www.w3.org/2000/svg" xmlns:xlink="http://www.w3.org/1999/xlink">
<g id="graph0" class="graph" transform="scale(1 1) rotate(0) translate(4 310)">
<polygon fill="white" stroke="transparent" points="-4,4 -4,-310 365.5,-310 365.5,4 -4,4"/>
<g id="clust2" class="cluster">
<title>cluster</title>
<polygon fill="none" stroke="black" points="8,-8 8,-151 324,-151 324,-8 8,-8"/>
</g>
<!-- top -->
<g id="node1" class="node">
<title>top</title>
<polygon fill="none" stroke="black" points="221,-306 9,-306 9,-268 221,-268 221,-306"/>
<text text-anchor="middle" x="115" y="-290.8" font-family="Times,serif" font-size="14.00">dns://example.com?TYPE=TXT</text>
<text text-anchor="middle" x="115" y="-275.8" font-family="Times,serif" font-size="14.00">crud/update</text>
</g>
<!-- left -->
<g id="node2" class="node">
<title>left</title>
<polygon fill="none" stroke="black" points="213.5,-143 16.5,-143 16.5,-90 213.5,-90 213.5,-143"/>
<text text-anchor="middle" x="115" y="-127.8" font-family="Times,serif" font-size="14.00">mailto:alice@example.com</text>
<text text-anchor="middle" x="115" y="-112.8" font-family="Times,serif" font-size="14.00">msg/send</text>
<text text-anchor="middle" x="115" y="-97.8" font-family="Times,serif" font-size="14.00">bob@example.com</text>
</g>
<!-- top&#45;&gt;left -->
<g id="edge1" class="edge">
<title>top&#45;&gt;left</title>
<path fill="none" stroke="black" d="M50.25,-267.77C50.25,-267.77 50.25,-153.19 50.25,-153.19"/>
<polygon fill="black" stroke="black" points="53.75,-153.19 50.25,-143.19 46.75,-153.19 53.75,-153.19"/>
</g>
<!-- right -->
<g id="node3" class="node">
<title>right</title>
<polygon fill="none" stroke="black" points="361.5,-232 164.5,-232 164.5,-179 361.5,-179 361.5,-232"/>
<text text-anchor="middle" x="263" y="-216.8" font-family="Times,serif" font-size="14.00">mailto:alice@example.com</text>
<text text-anchor="middle" x="263" y="-201.8" font-family="Times,serif" font-size="14.00">msg/send</text>
<text text-anchor="middle" x="263" y="-186.8" font-family="Times,serif" font-size="14.00">carol@example.com</text>
</g>
<!-- top&#45;&gt;right -->
<g id="edge2" class="edge">
<title>top&#45;&gt;right</title>
<path fill="none" stroke="black" d="M192.75,-267.69C192.75,-267.69 192.75,-242.08 192.75,-242.08"/>
<polygon fill="black" stroke="black" points="196.25,-242.08 192.75,-232.08 189.25,-242.08 196.25,-242.08"/>
</g>
<!-- hidden -->
<!-- top&#45;&gt;hidden -->
<!-- bottom -->
<g id="node4" class="node">
<title>bottom</title>
<polygon fill="none" stroke="black" points="316,-54 104,-54 104,-16 316,-16 316,-54"/>
<text text-anchor="middle" x="210" y="-38.8" font-family="Times,serif" font-size="14.00">https://example.com/events</text>
<text text-anchor="middle" x="210" y="-23.8" font-family="Times,serif" font-size="14.00">crud/create</text>
</g>
<!-- left&#45;&gt;bottom -->
<g id="edge4" class="edge">
<title>left&#45;&gt;bottom</title>
<path fill="none" stroke="black" d="M158.75,-89.81C158.75,-89.81 158.75,-64.25 158.75,-64.25"/>
<polygon fill="black" stroke="black" points="162.25,-64.25 158.75,-54.25 155.25,-64.25 162.25,-64.25"/>
</g>
<!-- hidden2 -->
<!-- left&#45;&gt;hidden2 -->
<!-- right&#45;&gt;bottom -->
<g id="edge3" class="edge">
<title>right&#45;&gt;bottom:nne</title>
<path fill="none" stroke="black" d="M264.75,-178.86C264.75,-178.86 264.75,-64.06 264.75,-64.06"/>
<polygon fill="black" stroke="black" points="268.25,-64.06 264.75,-54.06 261.25,-64.06 268.25,-64.06"/>
</g>
<!-- hidden&#45;&gt;left -->
<!-- hidden&#45;&gt;right -->
<!-- hidden2&#45;&gt;bottom -->
</g>
</svg>
